<svg width="118" height="118" viewBox="0 0 118 118" fill="none" xmlns="http://www.w3.org/2000/svg">
<path d="M59.219 102.015L18.5865 78.5548L59.219 55.0945L99.8515 78.5548L59.219 102.015Z" fill="#C1D9FF"/>
<path d="M99.8515 86.6291L59.219 110.089V102.015L99.8515 78.5548V86.6291Z" fill="#82B2FD"/>
<path d="M59.219 110.089L18.5865 86.6291V78.5548L59.219 102.015V110.089Z" fill="#1D76F6"/>
<path d="M78.3863 79.6097L84.3297 78.0847L81.969 73.05L75.8063 73.447C75.3571 72.9874 74.8453 72.5487 74.2812 72.1308L77.0493 68.851L70.5836 66.2501L66.4785 68.7361C65.2355 68.4541 63.9403 68.2452 62.6138 68.1303L61.1932 64.84L54.059 65.216L53.683 68.6212C52.4504 68.8823 51.2596 69.2166 50.142 69.624L45.5042 67.6811L39.6966 71.055L43.3734 73.9379C42.9764 74.3975 47.1233 73.7603 47.1233 73.7603L44.0628 71.3579L45.6922 70.4178L50.1106 72.2666L50.5702 72.0891C51.949 71.5563 53.4427 71.149 55.02 70.8669L55.9287 70.7103L56.2839 67.5662L59.6473 67.3886L60.9843 70.4805L61.7259 70.5327C63.3449 70.6372 64.9117 70.8774 66.4054 71.2534L66.8964 71.3788L70.8238 69.0077L73.0069 69.8851L70.6254 72.7053L71.837 73.447C72.8711 74.0841 73.7276 74.784 74.3961 75.5465L74.7931 75.9956L80.4754 75.63L80.8723 76.4761L75.8376 77.7713L75.9421 78.8159C76.0152 79.5471 75.9107 80.2887 75.6287 81.0199L75.19 82.1688L79.8173 83.9446L79.0966 84.8429L73.4874 83.9132L73.0591 84.2475C72.5891 84.6131 72.0564 84.9682 71.4923 85.3025C71.0641 85.5531 70.5731 85.7934 69.9673 86.065L68.7974 86.5872L70.406 89.7626L67.7111 90.4938L64.4313 87.6945L63.8777 87.778C63.042 87.9034 62.2064 87.9765 61.3499 88.0183L60.4411 90.4938C61.5274 90.4729 62.6033 90.4103 63.6687 90.2745L67.0948 93.1992L73.947 91.3399L72.1191 87.7362C72.328 87.6318 72.5264 87.5169 72.7144 87.4124C73.2158 87.12 73.6859 86.817 74.1246 86.5037L80.0993 87.4855L83.8179 82.8582L78.2609 80.7169C78.3341 80.3514 78.3863 79.9962 78.4072 79.6306L78.3863 79.6097Z" fill="#1D76F6"/>
<path d="M44.8402 45.8008H44.7357C43.7377 45.8008 42.9286 46.6098 42.9286 47.6078V72.4992C42.9286 73.4972 43.7377 74.3062 44.7357 74.3062H44.8402C45.8382 74.3062 46.6472 73.4972 46.6472 72.4992V47.6078C46.6472 46.6098 45.8382 45.8008 44.8402 45.8008Z" fill="#1F4361"/>
<path d="M44.7462 45.8008C44.7462 45.8008 44.767 45.8008 44.7879 45.8008C45.8116 45.8008 46.6472 46.6573 46.6472 47.7227V72.3843C46.6472 73.4497 45.8116 74.3062 44.7879 74.3062C44.7775 74.3062 44.767 74.3062 44.7462 74.3062V45.8008Z" fill="#8395A4"/>
<path d="M48.4333 49.641L41.6438 49.7767C41.1634 49.7767 40.7246 49.5261 40.4948 49.1082L37.0374 42.7261C36.5778 41.88 37.1941 40.8459 38.1551 40.8459H51.6296C52.5802 40.8459 53.1964 41.8591 52.7577 42.7052L49.5405 48.962C49.3316 49.3798 48.9034 49.641 48.4333 49.6514V49.641Z" fill="#466176"/>
<path d="M49.175 49.1396C49.175 49.8081 47.1695 50.7795 44.9655 50.7795C42.7615 50.7795 40.6724 49.7454 40.6724 49.0769C40.6724 48.4084 42.7615 48.1055 44.9655 48.1055C47.1695 48.1055 49.1645 48.4711 49.1645 49.1396H49.175Z" fill="#466176"/>
<path d="M62.7017 30.3379H27.2292L35.3035 41.8487C35.8362 43.6035 39.983 44.9719 45.0281 44.9719C49.1749 44.9719 52.7159 44.0422 54.1365 42.7366H54.2305L62.6912 30.3379H62.7017Z" fill="#8395A4"/>
<path d="M62.6808 30.0245C62.6808 29.9514 62.7122 29.8783 62.7122 29.8052C62.7122 29.7321 62.6913 29.6589 62.6808 29.5858V16.6335H27.2501V30.1185L27.3232 30.2648C27.9917 33.5551 35.6378 36.1455 44.9864 36.1455C54.335 36.1455 61.8766 33.5864 62.6391 30.3274L62.6808 30.2752V30.0036V30.0245Z" fill="#C1CAD1"/>
<path d="M44.9237 22.9947C54.7134 22.9947 62.6495 20.1514 62.6495 16.6439C62.6495 13.1365 54.7134 10.2932 44.9237 10.2932C35.134 10.2932 27.1979 13.1365 27.1979 16.6439C27.1979 20.1514 35.134 22.9947 44.9237 22.9947Z" fill="#E6E9EC"/>
<g opacity="0.28">
<path d="M32.713 21.2258L33.58 34.5646C30.7597 34.0528 28.5349 32.3606 27.3859 31.0236C27.3441 30.9609 27.2292 30.3864 27.2083 30.3342V17.2566C27.553 18.5623 29.6734 20.4424 32.7235 21.2258H32.713Z" fill="#8395A4"/>
</g>
<path opacity="0.29" d="M38.4162 42.6075L37.9253 41.7092L37.4343 40.8109L33.7889 34.7735C33.6949 34.7526 33.6531 34.6586 33.5695 34.6482C32.9219 34.4915 31.5014 34.0214 30.3419 33.4365C29.3601 32.9456 28.5871 32.3188 28.5871 32.3188L35.8049 42.6075H35.8466C35.8466 42.6075 35.8675 42.6911 35.8989 42.7224C36.1391 43.088 37.7268 44.0699 39.3981 44.2893L38.9489 43.5267L38.4475 42.6075H38.4162Z" fill="#466176"/>
<path d="M37.6432 43.8088L39.3354 44.3519L41.8945 50.0969C41.8945 50.0969 40.9649 49.7418 40.7142 49.5224C40.4635 49.3031 39.9412 48.4152 39.9412 48.4152L37.6537 43.7983L37.6432 43.8088Z" fill="#1F4361"/>
<path d="M47.8649 72.2875C47.7291 72.2875 47.5933 72.2458 47.4784 72.1517C47.1964 71.9428 47.1441 71.5459 47.3635 71.2639L54.0067 62.6047C54.2157 62.3226 54.6126 62.2704 54.8946 62.4898C55.1766 62.6987 55.2289 63.0956 55.0095 63.3776L48.3662 72.0368C48.2409 72.204 48.0529 72.2875 47.8649 72.2875V72.2875Z" fill="#072F4F"/>
<path d="M48.408 73.8857C48.126 73.8857 47.8649 73.6977 47.7917 73.4052C47.7082 73.071 47.9171 72.7263 48.2513 72.6323L58.7281 70.0105C59.0623 69.9269 59.407 70.1358 59.501 70.4701C59.5846 70.8043 59.3757 71.149 59.0414 71.243L48.5647 73.8648C48.5647 73.8648 48.4602 73.8857 48.408 73.8857Z" fill="#072F4F"/>
<path d="M58.7907 77.9593C58.7907 77.9593 58.7072 77.9593 58.6654 77.9489L47.9171 75.7553C47.5724 75.6822 47.353 75.348 47.4262 75.0033C47.4993 74.6586 47.8335 74.4392 48.1782 74.5123L58.9265 76.7059C59.2712 76.779 59.4906 77.1132 59.4175 77.4579C59.3548 77.7609 59.0937 77.9593 58.8012 77.9593H58.7907Z" fill="#072F4F"/>
<path d="M41.7439 72.0055C41.5558 72.0055 41.3678 71.9219 41.2425 71.7548L34.5992 63.0956C34.3903 62.8136 34.4425 62.4167 34.7141 62.2077C34.9961 61.9988 35.3931 62.0511 35.602 62.3226L42.2452 70.9819C42.4542 71.2639 42.4019 71.6608 42.1303 71.8697C42.0154 71.9533 41.8797 72.0055 41.7439 72.0055V72.0055Z" fill="#072F4F"/>
<path d="M40.762 74.1678C40.6784 74.1678 40.5949 74.1573 40.5217 74.1155L30.442 69.9374C30.1182 69.8016 29.9615 69.436 30.0973 69.1122C30.2331 68.7884 30.5986 68.6317 30.9224 68.7675L41.0022 72.9456C41.326 73.0814 41.4827 73.447 41.3469 73.7708C41.2425 74.0111 41.0127 74.1573 40.762 74.1573V74.1678Z" fill="#072F4F"/>
<path d="M30.4106 77.458C30.0973 77.458 29.8257 77.2282 29.7839 76.9044C29.7421 76.5597 29.9824 76.2359 30.3271 76.1941L41.138 74.7735C41.4827 74.7317 41.8065 74.972 41.8483 75.3167C41.8901 75.6614 41.6498 75.9852 41.3051 76.027L30.4942 77.4475C30.4942 77.4475 30.442 77.4475 30.4106 77.4475V77.458Z" fill="#072F4F"/>
<path d="M41.1694 80.696C41.0545 80.696 40.95 80.6647 40.8456 80.602C40.5426 80.4245 40.4486 80.0275 40.6262 79.7351L43.1331 75.5778C43.3107 75.2749 43.6971 75.1809 44.0001 75.3584C44.303 75.536 44.397 75.9329 44.2194 76.2254L41.7125 80.3827C41.5976 80.5811 41.3887 80.6856 41.1694 80.6856V80.696Z" fill="#072F4F"/>
<path d="M48.0528 81.1452C47.823 81.1452 47.5932 81.0198 47.4888 80.8005L45.1177 76.1C44.961 75.7867 45.0863 75.4107 45.3997 75.254C45.7131 75.0973 46.0891 75.2226 46.2458 75.536L48.6169 80.2364C48.7736 80.5498 48.6482 80.9258 48.3349 81.0825C48.2409 81.1243 48.1468 81.1556 48.0528 81.1556V81.1452Z" fill="#072F4F"/>
</svg>
