<svg width="118" height="118" viewBox="0 0 118 118" fill="none" xmlns="http://www.w3.org/2000/svg">
<g clip-path="url(#clip0_241_6732)">
<g clip-path="url(#clip1_241_6732)">
<path d="M17.4106 38.0379L11.1067 34.6265L41.8462 17L47.7315 20.593L17.4106 38.0379Z" fill="#E6F0FD"/>
<path d="M49.2665 67.0878L17.4598 86.1103V37.9635L47.7069 20.6509L49.2665 67.0878Z" fill="#C3DAFD"/>
<path d="M17.5009 86.1103L11.2462 82.6742L11 34.5853L17.4106 38.0544L17.5009 86.1103Z" fill="#86B5F8"/>
<path d="M48.9709 65.1715L17.4297 46.8086L47.5016 29.2742L78.9963 47.2394L48.9709 65.1715Z" fill="#E6F0FD"/>
<path d="M82.608 84.7144L48.9709 104.257V65.1716L82.608 45.6287V84.7144Z" fill="#C3DAFD"/>
<path d="M49.0448 104.158L17.4105 85.879V46.8016L49.0448 65.0724V104.158Z" fill="#86B5F8"/>
<path opacity="0.23" d="M48.918 65.0117C36.6217 57.8733 29.7259 53.9509 17.4297 46.8125L47.5016 29.2742L79.7186 47.5532L48.918 65.0117Z" fill="#86B5F8"/>
<path d="M52.4266 57.6054L46.016 54.1363L77.01 36.8649L82.7885 40.5075L52.4266 57.6054Z" fill="#E6F0FD"/>
<path d="M89.429 84.7474L52.4758 105.851V57.4568L88.8872 35.9811L89.429 84.7474Z" fill="#C3DAFD"/>
<path d="M52.4266 106L46.016 102.531V54.1363L52.4266 57.6054V106Z" fill="#86B5F8"/>
<path d="M52.5272 85.3652L52.4512 84.5364L88.8295 64.5L89.125 65.0413L52.5272 85.3652Z" fill="#86B5F8"/>
<path d="M84.6348 72.275H74.2433L73.562 73.2992L76.6975 82.798L84.6348 72.275Z" fill="#466176"/>
<path d="M89.2642 74.8025L85.7675 72.754C85.7019 72.721 85.7183 72.721 85.6937 72.7128C83.9946 71.4573 80.7934 72.9605 78.5279 76.058C76.2625 79.1554 75.8028 82.6824 77.5019 83.9379C77.5101 83.9379 77.5265 83.9544 77.5347 83.9627L81.1874 86.0111L89.2642 74.8025Z" fill="#8395A4"/>
<path d="M74.6778 73.2298C74.8461 72.8309 74.7491 72.4078 74.4612 72.2848C74.1732 72.1619 73.8034 72.3855 73.6351 72.7845C73.4669 73.1834 73.5639 73.6065 73.8518 73.7295C74.1397 73.8525 74.5095 73.6288 74.6778 73.2298Z" fill="#466176"/>
<path d="M102.256 77.3749C102.256 77.3749 92.2222 71.4812 92.1844 71.466C89.3695 69.9126 84.3678 72.8138 81.273 77.9764C78.1781 83.1467 77.9663 88.7281 80.7963 90.449C80.819 90.4566 80.8341 90.4718 80.8568 90.4795L90.6407 96.1447L102.256 77.3749V77.3749Z" fill="#C1CAD1"/>
<path d="M91.3973 96.4416C87.9544 95.3908 88.242 88.9108 91.299 83.8167C94.3484 78.7226 99.456 75.7986 102.566 77.6794C105.676 79.5602 105.615 85.5224 102.558 90.6165C99.509 95.7106 94.8705 97.5 91.4049 96.4416H91.3973Z" fill="#8395A4"/>
<path d="M94.1233 45.5587H91.743C91.1355 45.5587 90.6431 46.0543 90.6431 46.6655V75.2942C90.6431 75.9055 91.1355 76.401 91.743 76.401H94.1233C94.7308 76.401 95.2232 75.9055 95.2232 75.2942V46.6655C95.2232 46.0543 94.7308 45.5587 94.1233 45.5587Z" fill="#466176"/>
<path d="M95.2068 67.4391L90.6923 67.4721C90.6102 67.4639 89.576 66.3983 89.2395 65.5145C88 62.2602 84.6347 54.5372 84.6347 54.5372C84.0191 51.828 86.0629 51.3984 86.9494 51.3984H99.4258C100.312 51.3984 101.601 52.3566 100.641 54.4711C100.641 54.4711 97.5297 62.161 96.3806 65.4485C96.0687 66.3405 95.2807 67.373 95.2068 67.4391Z" fill="#466176"/>
<path d="M111.484 40.0659H73.3485L82.0327 52.5217C82.6073 54.4215 87.0643 55.9 92.4899 55.9C96.9552 55.9 100.756 54.8923 102.29 53.4799H102.389L111.484 40.0576V40.0659Z" fill="#8395A4"/>
<path d="M111.467 39.7272C111.467 39.6446 111.5 39.5703 111.5 39.4877C111.5 39.4051 111.475 39.3308 111.467 39.2482V25.2394H73.3732V39.8346L73.4553 39.9998C74.1776 43.5598 82.3939 46.3682 92.4489 46.3682C102.504 46.3682 110.605 43.6011 111.426 40.0741L111.475 40.0163V39.7272H111.467Z" fill="#C1CAD1"/>
<path d="M92.375 32.1199C102.901 32.1199 111.434 29.0431 111.434 25.2477C111.434 21.4523 102.901 18.3755 92.375 18.3755C81.8488 18.3755 73.3157 21.4523 73.3157 25.2477C73.3157 29.0431 81.8488 32.1199 92.375 32.1199Z" fill="#E6E9EC"/>
<path d="M92.531 31.1948C101.924 31.1948 109.538 28.7393 109.538 25.7103C109.538 22.6812 101.924 20.2257 92.531 20.2257C83.1381 20.2257 75.5237 22.6812 75.5237 25.7103C75.5237 28.7393 83.1381 31.1948 92.531 31.1948Z" fill="#8395A4"/>
<path d="M92.8675 76.7809C94.028 76.7809 94.9688 76.2928 94.9688 75.6906C94.9688 75.0885 94.028 74.6003 92.8675 74.6003C91.707 74.6003 90.7662 75.0885 90.7662 75.6906C90.7662 76.2928 91.707 76.7809 92.8675 76.7809Z" fill="#466176"/>
<g opacity="0.28">
<path d="M79.242 30.2119L80.1777 44.6501C77.1489 44.0967 74.7521 42.263 73.5127 40.8093C73.4716 40.7432 73.3485 40.1237 73.3239 40.0659H73.3157V40.0411L73.3321 25.9002C73.685 27.3126 75.9669 29.3446 79.242 30.2036V30.2119Z" fill="#8395A4"/>
</g>
<path opacity="0.29" d="M85.3734 53.3477L84.8399 52.373L84.3064 51.3984L80.3829 44.8566C80.2762 44.8318 80.2351 44.7327 80.1448 44.7162C79.4471 44.551 77.9122 44.0306 76.6728 43.4028C75.6221 42.8659 74.7849 42.1969 74.7849 42.1969L82.5416 53.3312H82.5827C82.5827 53.3725 82.6073 53.4138 82.6319 53.4633C82.8864 53.8598 84.5937 54.9253 86.3912 55.1566L85.907 54.3389L85.3652 53.3477H85.3734Z" fill="#466176"/>
<path d="M52.4512 84.45L39.0144 77.0492L36.2483 73.8361L36.2647 70.9038C36.2647 70.7469 36.2072 70.5734 36.1087 70.4C35.8789 69.987 35.4685 69.1527 35.4685 68.3433C35.4685 67.8146 35.805 67.4842 36.0185 67.319C36.1416 67.2282 36.2072 67.0795 36.2072 66.8813L36.2483 65.1219C36.2483 64.5355 35.9117 63.8664 35.5013 63.6269L26.2015 58.1506V55.4744L22.6392 53.4012V58.3819C22.6392 59.2409 23.1316 60.2073 23.7308 60.5542L31.7584 65.221C32.1852 65.4688 32.5054 66.1296 32.5054 66.7161V67.9716L30.9622 69.1445V70.8708L32.5054 73.8443V75.8597L30.9622 77.0326V78.759L32.5054 81.7325V82.9963C32.5054 83.5745 32.1688 83.8553 31.7666 83.624L23.6241 78.9655C23.0249 78.6185 22.3683 79.6841 22.3683 80.5348L22.6392 84.8547L26.2015 86.928V84.2518L35.5013 89.7281C35.9282 89.9759 36.2483 89.6868 36.2483 89.1086L36.2237 86.5067C36.2237 86.292 36.1498 86.0442 36.002 85.8046C35.7804 85.4329 35.4767 84.8547 35.4603 84.4996C35.4439 84.004 35.723 83.8305 35.9446 83.7644C36.1252 83.7149 36.2401 83.5579 36.2401 83.3184V80.3614L38.8092 80.4605L52.3199 87.6548L52.4594 84.45H52.4512Z" fill="#1A6EE8"/>
<path d="M22.5195 88.8086L22.293 88.6758V85.0156L22.3257 82.9346C22.3257 82.8272 22.3257 80.4814 22.3586 79.8371C22.3914 79.3911 22.7361 79.0194 23.0645 78.8459C23.3353 78.7055 23.5816 78.689 23.7786 78.8046C25.9702 80.151 28.6788 81.5799 28.7035 81.5882L31.5845 83.2484C31.7077 83.298 31.8636 83.2897 32.0032 83.2071C32.1427 83.1245 32.2166 82.9759 32.2166 82.8189L32.2494 81.7699L30.657 78.7303L30.7309 76.9792L31.642 76.1449C32.0114 75.8641 32.2166 75.4511 32.2166 75.0133V74.4517C32.2166 74.1048 32.1263 73.7578 31.9621 73.4522L30.6078 70.9412L30.7966 69.0249L31.4943 68.3559C31.9375 68.0172 32.1509 67.5051 32.1017 66.9848C32.036 66.4066 31.8308 65.8532 31.486 65.3741L28.8923 63.9451C28.7199 63.8625 24.2875 61.7067 22.966 60.5421C22.3945 60.0078 22.3996 59.5674 22.3421 58.3532C22.3339 58.155 22.3247 57.5102 22.3165 57.3945C22.3126 56.2852 22.3239 53.4247 22.3321 53.3008L22.3321 52.7656L22.3204 49.6211C22.6954 49.8108 22.5665 49.7305 22.9571 49.9805L22.9493 51.1992L22.9532 53.543C22.9039 54.4185 22.9883 56.6016 22.9531 57.3555C23.0157 58.2993 22.7007 59.269 23.3959 60.0791C24.5391 61.293 28.8477 63.2188 29.1795 63.3917L31.9457 64.9528C32.3725 65.5228 32.6352 66.2001 32.7091 66.9104C32.7911 67.6455 32.471 68.3724 31.8882 68.8184L31.3793 69.3058L31.2316 70.8008L32.4956 73.1466C32.7091 73.5431 32.824 73.9891 32.824 74.4352V74.9968C32.824 75.6246 32.5285 76.2275 32.0278 76.6075L31.3219 77.2518L31.2644 78.5733L32.8568 81.6047L32.824 82.8107C32.824 83.1741 32.627 83.5127 32.3233 83.711C32.0114 83.9092 31.6338 83.934 31.2973 83.7853L28.3998 82.1168C28.3998 82.1168 23.7109 79.3125 23.442 79.3167C23.263 79.3195 23.2337 79.3175 23.0859 79.4414C22.9546 79.557 22.966 79.738 22.9578 79.8536C22.9167 80.4731 22.9249 82.8767 22.9249 82.9015L22.9219 84.6602L22.918 89.0625L22.5195 88.8086Z" fill="#1A5ADE"/>
</g>
</g>
<defs>
<clipPath id="clip0_241_6732">
<rect width="109" height="92" fill="white" transform="translate(5.69238 13)"/>
</clipPath>
<clipPath id="clip1_241_6732">
<rect width="100" height="89" fill="white" transform="translate(11 17)"/>
</clipPath>
</defs>
</svg>
