<?xml version="1.0" encoding="UTF-8"?>
<svg xmlns="http://www.w3.org/2000/svg" width="24" height="25" viewBox="0 0 24 25" fill="none">
  <path d="M11.8732 1.72284C11.8731 1.57326 11.833 1.4756 11.7606 1.43415C11.6881 1.39269 11.4925 1.31888 11.3627 1.39425L3.31306 5.89983V17.8059L11.4391 13.1123C11.6343 12.9997 11.8785 12.5768 11.8784 12.3514L14.2017 2.84438L13.8839 2.69973L11.8741 3.44223L11.8732 1.72284Z" fill="#22445F"></path>
  <path d="M4.02644 6.2121C3.19017 6.76833 4.00891 8.04178 4.87871 7.5396L5.28704 7.30383L12.9515 2.87224L13.0759 2.80024C13.2053 2.72512 13.3099 2.71024 13.3824 2.75117L11.8063 1.84221L11.8056 1.8426C11.7329 1.7925 11.624 1.80405 11.4872 1.88349L4.09255 6.17108C4.06984 6.18419 4.04781 6.19787 4.02644 6.2121Z" fill="#E6E9EC"></path>
  <path d="M14.3229 3.13706C14.3228 2.8379 14.1627 2.74638 13.9031 2.89713L6.56276 7.15634V18.7675L13.8888 14.5265C14.0841 14.4139 14.3282 13.991 14.3282 13.7655L14.3229 3.13706Z" fill="#C1CAD1"></path>
  <path d="M14.2249 2.85835L14.2256 2.85801L14.2196 2.85454C14.2214 2.85578 14.2232 2.85706 14.2249 2.85835Z" fill="#E37A34"></path>
  <path d="M6.56346 7.15631C6.56346 7.15631 5.46018 7.47611 4.34747 7.30091C3.23475 7.12567 2.91884 6.44228 2.91884 6.44228V18.0618C2.91802 18.0877 2.91802 18.1135 2.91884 18.1393V18.1479L2.9191 18.148C2.93416 18.5354 3.13294 18.9165 3.51648 19.1379C4.25946 19.5669 5.17503 19.5662 5.9174 19.1362L6.52205 18.7859C6.54857 18.7743 6.56341 18.7674 6.56341 18.7674V7.15631H6.56346Z" fill="#22445F"></path>
  <path d="M11.7665 1.43683L11.7614 1.43387C11.763 1.43478 11.7644 1.43616 11.766 1.43712L11.7665 1.43683Z" fill="#E37A34"></path>
  <path d="M13.6681 2.53252C13.667 2.53187 13.6659 2.53122 13.6648 2.53062L13.6608 2.52832L13.6603 2.52862C13.5881 2.4912 13.4855 2.50673 13.3592 2.58011L5.59402 7.08025C5.10521 7.36245 4.50299 7.36245 4.01418 7.08025L3.72341 6.91236C3.3721 6.70951 3.35285 6.21988 3.66469 5.98488L11.3291 1.55334L11.4535 1.48134C11.5829 1.40622 11.6875 1.39134 11.76 1.43227L11.2283 1.12467L11.2275 1.12506C11.1549 1.07495 11.046 1.0865 10.9092 1.16595L3.51455 5.45354C2.71753 5.91535 2.71844 7.06653 3.51619 7.52713C4.25917 7.9561 5.17474 7.95545 5.91711 7.5254L13.7791 2.96772V2.96763L13.9035 2.89546C14.0283 2.82303 14.1298 2.80711 14.2019 2.84276L13.6681 2.53252Z" fill="#8495A3"></path>
  <path d="M13.3891 2.75655L13.384 2.75359C13.3856 2.75449 13.387 2.75588 13.3886 2.75684L13.3891 2.75655Z" fill="#E37A34"></path>
  <path d="M4.52257 6.2112C4.43755 6.26031 4.43755 6.3208 4.52257 6.36987C4.57951 6.40275 4.72191 6.40275 4.77885 6.36987L12.2161 2.0776L11.9505 1.92426L4.52257 6.2112Z" fill="#ADB7BF"></path>
  <path d="M5.28249 6.64745C5.19746 6.69656 5.19746 6.75705 5.28249 6.80612C5.33947 6.839 5.48183 6.839 5.53877 6.80612L12.976 2.51385L12.7104 2.36055L5.28249 6.64745Z" fill="#ADB7BF"></path>
  <path d="M15.277 3.93318C15.2769 3.7836 15.2369 3.68594 15.1644 3.64449C15.0919 3.60304 14.8963 3.52922 14.7666 3.60459L6.7169 8.11018V20.0162L14.8429 15.3226C15.0382 15.2101 15.2823 14.7871 15.2822 14.5617L17.6055 5.05472L17.2877 4.91007L15.2779 5.65257L15.277 3.93318Z" fill="#0D53B7"></path>
  <path d="M7.43028 8.42244C6.59401 8.97867 7.41275 10.2521 8.28255 9.74994L8.69088 9.51417L16.3553 5.08258L16.4797 5.01058C16.6091 4.93546 16.7137 4.92058 16.7862 4.96151L15.2101 4.05256L15.2094 4.05294C15.1367 4.00284 15.0279 4.01439 14.8911 4.09383L7.49639 8.38142C7.47368 8.39454 7.45165 8.40821 7.43028 8.42244Z" fill="#E6E9EC"></path>
  <path d="M17.7268 5.3474C17.7266 5.04824 17.5665 4.95672 17.3069 5.10747L9.9666 9.36668V20.9778L17.2927 16.7368C17.4879 16.6242 17.7321 16.2013 17.732 15.9759L17.7268 5.3474Z" fill="#0E6CF1"></path>
  <path d="M17.6288 5.06869L17.6294 5.06835L17.6234 5.06488C17.6253 5.06612 17.627 5.0674 17.6288 5.06869Z" fill="#E37A34"></path>
  <path d="M9.96729 9.36665C9.96729 9.36665 8.86402 9.68645 7.7513 9.51125C6.63859 9.33601 6.32268 8.65262 6.32268 8.65262V20.2722C6.32186 20.2981 6.32186 20.3238 6.32268 20.3497V20.3582L6.32294 20.3584C6.338 20.7457 6.53678 21.1268 6.92032 21.3482C7.66329 21.7772 8.57887 21.7766 9.32124 21.3465L9.92589 20.9962C9.95241 20.9847 9.96725 20.9778 9.96725 20.9778V9.36665H9.96729Z" fill="#0D53B7"></path>
  <path d="M15.1703 3.64717L15.1652 3.64421C15.1668 3.64512 15.1682 3.64651 15.1698 3.64746L15.1703 3.64717Z" fill="#E37A34"></path>
  <path d="M17.0719 4.74286C17.0708 4.74221 17.0697 4.74156 17.0686 4.74096L17.0647 4.73866L17.0642 4.73897C16.9919 4.70154 16.8894 4.71707 16.763 4.79046L8.99786 9.29059C8.50905 9.57279 7.90683 9.57279 7.41801 9.29059L7.12725 9.1227C6.77594 8.91986 6.75669 8.43022 7.06853 8.19523L14.733 3.76368L14.8574 3.69168C14.9868 3.61656 15.0914 3.60168 15.1639 3.64261L14.6321 3.33501L14.6314 3.3354C14.5587 3.28529 14.4499 3.29685 14.3131 3.37629L6.91839 7.66388C6.12137 8.12569 6.12228 9.27687 6.92003 9.73747C7.66301 10.1664 8.57858 10.1658 9.32095 9.73574L17.1829 5.17806V5.17798L17.3073 5.1058C17.4321 5.03337 17.5336 5.01745 17.6057 5.0531L17.0719 4.74286Z" fill="#6D9CDE"></path>
  <path d="M16.7929 4.96689L16.7878 4.96393C16.7894 4.96484 16.7908 4.96622 16.7924 4.96718L16.7929 4.96689Z" fill="#E37A34"></path>
  <path d="M7.92641 8.42154C7.84138 8.47065 7.84138 8.53114 7.92641 8.58021C7.98335 8.61309 8.12575 8.61309 8.18269 8.58021L15.6199 4.28794L15.3544 4.1346L7.92641 8.42154Z" fill="#ADB7BF"></path>
  <path d="M8.68633 8.85779C8.6013 8.9069 8.6013 8.96739 8.68633 9.01646C8.74331 9.04934 8.88567 9.04934 8.94261 9.01646L16.3798 4.7242L16.1143 4.57089L8.68633 8.85779Z" fill="#ADB7BF"></path>
  <path d="M18.6277 6.16875C18.6276 6.01916 18.5875 5.92151 18.5151 5.88005C18.4426 5.8386 18.247 5.76478 18.1172 5.84016L10.0676 10.3457V22.2518L18.1936 17.5582C18.3888 17.4456 18.633 17.0227 18.6329 16.7973L20.9562 7.29028L20.6384 7.14564L18.6286 7.88814L18.6277 6.16875Z" fill="#A4C5F5"></path>
  <path d="M10.7809 10.658C9.94467 11.2142 10.7634 12.4877 11.6332 11.9855L12.0415 11.7497L19.706 7.31814L19.8304 7.24614C19.9598 7.17103 20.0644 7.15614 20.1369 7.19708L18.5608 6.28812L18.5601 6.28851C18.4874 6.2384 18.3785 6.24996 18.2417 6.3294L10.8471 10.617C10.8243 10.6301 10.8023 10.6438 10.7809 10.658Z" fill="#E6E9EC"></path>
  <path d="M21.0774 7.58297C21.0773 7.2838 20.9172 7.19229 20.6576 7.34304L13.3173 11.6022V23.2134L20.6433 18.9724C20.8386 18.8598 21.0827 18.4369 21.0827 18.2114L21.0774 7.58297Z" fill="#84B4FB"></path>
  <path d="M20.9795 7.30425L20.9801 7.30392L20.9741 7.30045C20.9759 7.30168 20.9777 7.30297 20.9795 7.30425Z" fill="#E37A34"></path>
  <path d="M13.318 11.6022C13.318 11.6022 12.2147 11.922 11.102 11.7468C9.98925 11.5716 9.67335 10.8882 9.67335 10.8882V22.5077C9.67252 22.5336 9.67252 22.5594 9.67335 22.5852V22.5938L9.67361 22.5939C9.68866 22.9813 9.88744 23.3624 10.271 23.5838C11.014 24.0128 11.9295 24.0121 12.6719 23.5821L13.2765 23.2318C13.3031 23.2202 13.3179 23.2133 13.3179 23.2133V11.6022H13.318Z" fill="#267AF2"></path>
  <path d="M18.521 5.88274L18.5159 5.87978C18.5175 5.88068 18.5189 5.88207 18.5205 5.88303L18.521 5.88274Z" fill="#E37A34"></path>
  <path d="M20.4226 6.97843C20.4215 6.97778 20.4204 6.97713 20.4193 6.97652L20.4153 6.97423L20.4148 6.97453C20.3426 6.9371 20.2401 6.95264 20.1137 7.02602L12.3485 11.5262C11.8597 11.8084 11.2575 11.8084 10.7687 11.5262L10.4779 11.3583C10.1266 11.1554 10.1074 10.6658 10.4192 10.4308L18.0836 5.99924L18.208 5.92724C18.3374 5.85213 18.442 5.83724 18.5145 5.87818L17.9828 5.57058L17.982 5.57097C17.9094 5.52086 17.8005 5.53241 17.6637 5.61185L10.269 9.89945C9.47203 10.3613 9.47294 11.5124 10.2707 11.973C11.0137 12.402 11.9292 12.4014 12.6716 11.9713L20.5336 7.41363V7.41354L20.658 7.34137C20.7828 7.26894 20.8843 7.25301 20.9564 7.28867L20.4226 6.97843Z" fill="#6D9CDE"></path>
  <path d="M20.1436 7.20246L20.1385 7.19949C20.1401 7.2004 20.1415 7.20179 20.1431 7.20274L20.1436 7.20246Z" fill="#E37A34"></path>
  <path d="M11.2771 10.6571C11.192 10.7062 11.192 10.7667 11.2771 10.8158C11.334 10.8487 11.4764 10.8487 11.5334 10.8158L18.9706 6.52351L18.705 6.37016L11.2771 10.6571Z" fill="#ADB7BF"></path>
  <path d="M12.037 11.0934C11.952 11.1425 11.952 11.203 12.037 11.252C12.094 11.2849 12.2363 11.2849 12.2933 11.252L19.7305 6.95976L19.4649 6.80646L12.037 11.0934Z" fill="#ADB7BF"></path>
  <path d="M20.1436 9.58203V15.8014L14.3867 18.9101V12.6908L20.1436 9.58203ZM14.8031 18.2356L19.7272 15.5765V10.2566L14.8031 12.9156V18.2356Z" fill="#EAF2FC"></path>
  <path d="M16.1032 14.0468L18.6027 12.7226V12.1133L16.1032 13.4375V14.0468Z" fill="#EAF2FC"></path>
  <path d="M15.6258 15.4648L19.0791 13.6353V13.0261L15.6258 14.8556V15.4648Z" fill="#EAF2FC"></path>
  <path d="M16.1032 16.3799L18.6027 15.0557V14.4464L16.1032 15.7706V16.3799Z" fill="#EAF2FC"></path>
</svg>
