<?xml version="1.0" encoding="UTF-8"?>
<svg xmlns="http://www.w3.org/2000/svg" width="24" height="24" viewBox="0 0 24 24" fill="none">
  <g clip-path="url(#clip0_121_19831)">
    <mask id="mask0_121_19831" style="mask-type:luminance" maskUnits="userSpaceOnUse" x="0" y="0" width="24" height="24">
      <path d="M24 0H0V24H24V0Z" fill="white"></path>
    </mask>
    <g mask="url(#mask0_121_19831)">
      <path d="M13.5725 4.61468L11.5122 3.42486C10.8389 3.00995 9.94977 3.0343 8.97491 3.59717L3.80566 6.5816C1.7038 7.79504 0 11.0507 0 13.8529C0 15.3624 0.494385 16.4321 1.27899 16.9086L3.43085 18.1531C3.43286 18.1542 3.43469 18.1553 3.43671 18.1566C3.49054 18.1875 3.54657 18.2158 3.60297 18.2412L3.53027 18.5933C3.48615 18.8076 3.53741 18.9539 3.6319 19.0077L5.73083 20.2189C5.83063 20.2949 5.99066 20.2543 6.13641 20.0593L9.06427 16.1417L11.0936 14.97C13.1953 13.7566 14.8993 10.501 14.8993 7.69873C14.8993 6.159 14.3846 5.07629 13.5725 4.61468Z" fill="#0E6AED"></path>
      <path d="M5.9248 7.80538L11.0941 4.82094C13.1957 3.6075 14.8997 4.89547 14.8997 7.6979C14.8997 10.5003 13.1957 13.7559 11.0941 14.9694L9.0647 16.1409L6.13684 20.0586C5.8717 20.4133 5.55841 20.2582 5.64941 19.8171L6.0484 17.8824L5.9248 17.9538C3.82312 19.1673 2.11914 17.8791 2.11914 15.0767C2.11914 12.2744 3.82294 9.01882 5.9248 7.80538Z" fill="#67A1F5"></path>
      <path d="M6.1167 12.3654L5.80963 12.1936C5.63275 12.0473 5.38281 12.0363 5.10559 12.1963C4.56946 12.506 4.13477 13.3365 4.13477 14.0516C4.13477 14.4343 4.25946 14.706 4.4574 14.8287L4.7879 15.0189C4.96295 15.1465 5.20264 15.1493 5.46704 14.9968C6.00317 14.6871 6.43787 13.8566 6.43787 13.1415C6.43787 12.7599 6.3139 12.4884 6.1167 12.3654Z" fill="#D1D1D1"></path>
      <path d="M6.43774 13.1416C6.43774 13.8565 6.00305 14.687 5.46692 14.9967C4.93079 15.3063 4.49609 14.9776 4.49609 14.2626C4.49609 13.5477 4.93079 12.7172 5.46692 12.4075C6.00305 12.0979 6.43774 12.4266 6.43774 13.1416Z" fill="white"></path>
      <path d="M9.70068 10.288L9.39362 10.1165C9.21674 9.97015 8.9668 9.95917 8.68958 10.1192C8.15344 10.4288 7.71875 11.2594 7.71875 11.9742C7.71875 12.3571 7.84326 12.6288 8.04138 12.7515L8.3717 12.9418C8.54694 13.0694 8.78644 13.0721 9.05103 12.9194C9.58716 12.61 10.0219 11.7794 10.0219 11.0644C10.0219 10.6826 9.89771 10.4111 9.70068 10.288Z" fill="#D1D1D1"></path>
      <path d="M10.0219 11.0643C10.0219 11.7793 9.58722 12.6097 9.0509 12.9193C8.51477 13.229 8.08008 12.9003 8.08008 12.1854C8.08008 11.4704 8.51477 10.64 9.0509 10.3304C9.58722 10.0208 10.0219 10.3494 10.0219 11.0643Z" fill="white"></path>
      <path d="M13.2827 8.20715L12.9756 8.0354C12.7988 7.8891 12.5488 7.87811 12.2716 8.03814C11.7355 8.34778 11.3008 9.17834 11.3008 9.89337C11.3008 10.2761 11.4255 10.5478 11.6234 10.6705L11.9539 10.8609C12.129 10.9883 12.3687 10.9911 12.6331 10.8386C13.1692 10.5289 13.6039 9.69836 13.6039 8.98334C13.6039 8.60174 13.4799 8.3302 13.2827 8.20715Z" fill="#D1D1D1"></path>
      <path d="M13.6057 8.98322C13.6057 9.69825 13.171 10.5288 12.6349 10.8385C12.0988 11.1479 11.6641 10.8194 11.6641 10.1044C11.6641 9.38953 12.0988 8.55897 12.6349 8.24933C13.171 7.9397 13.6057 8.26838 13.6057 8.98322Z" fill="white"></path>
      <path d="M22.6805 7.089L20.5889 5.8805C19.9187 5.48133 19.0392 5.51191 18.0763 6.06782L12.9072 9.05226C10.8054 10.2657 9.10156 13.5213 9.10156 16.3236C9.10156 17.8931 9.63605 18.9874 10.4754 19.4336L12.5242 20.619C13.193 21.0114 14.0681 20.9779 15.0258 20.4251L17.0551 19.2534L19.983 19.7903C20.2481 19.839 20.5614 19.3221 20.4704 18.9861L20.0714 17.5121L20.195 17.4407C22.2969 16.2272 24.0007 12.9716 24.0007 10.1692C24.0007 8.63349 23.4889 7.55262 22.6805 7.089Z" fill="#0E6AED"></path>
      <path d="M20.1937 7.29067L15.0244 10.2751C12.9227 11.4887 11.2188 14.7442 11.2188 17.5466C11.2188 20.349 12.9227 21.637 15.0244 20.4235L17.0538 19.2519L19.9816 19.7887C20.2468 19.8374 20.5601 19.3207 20.4691 18.9845L20.0701 17.5105L20.1937 17.4391C22.2955 16.2257 23.9993 12.9701 23.9993 10.1676C23.9993 7.36519 22.2955 6.07723 20.1937 7.29067Z" fill="#93BDF7"></path>
      <path d="M15.2593 14.9004L14.9522 14.7287C14.7753 14.5824 14.5254 14.5716 14.2482 14.7316C13.712 15.0412 13.2773 15.8718 13.2773 16.5866C13.2773 16.9695 13.4019 17.2412 13.6 17.3639L13.9303 17.5542C14.1055 17.6818 14.345 17.6845 14.6096 17.5318C15.1458 17.2224 15.5804 16.3918 15.5804 15.6768C15.5804 15.295 15.4565 15.0235 15.2593 14.9004Z" fill="#D1D1D1"></path>
      <path d="M15.5805 15.6766C15.5805 16.3916 15.1458 17.2222 14.6097 17.5316C14.0734 17.8413 13.6387 17.5126 13.6387 16.7977C13.6387 16.0827 14.0734 15.2522 14.6097 14.9427C15.1458 14.6331 15.5805 14.9617 15.5805 15.6766Z" fill="white"></path>
      <path d="M18.8433 12.8243L18.5364 12.6526C18.3593 12.5063 18.1096 12.4953 17.8323 12.6553C17.296 12.965 16.8613 13.7955 16.8613 14.5106C16.8613 14.8932 16.986 15.165 17.184 15.2877L17.5145 15.4779C17.6895 15.6055 17.9292 15.6083 18.1936 15.4557C18.7299 15.1461 19.1644 14.3155 19.1644 13.6005C19.1644 13.2189 19.0405 12.9474 18.8433 12.8243Z" fill="#D1D1D1"></path>
      <path d="M19.1643 13.6004C19.1643 14.3154 18.7298 15.146 18.1935 15.4556C17.6573 15.7651 17.2227 15.4366 17.2227 14.7216C17.2227 14.0067 17.6573 13.1762 18.1935 12.8665C18.7296 12.5569 19.1643 12.8856 19.1643 13.6004Z" fill="white"></path>
      <path d="M22.4253 10.7432L22.1182 10.5714C21.9413 10.4251 21.6914 10.4143 21.4142 10.5744C20.8781 10.8838 20.4434 11.7146 20.4434 12.4294C20.4434 12.8121 20.5681 13.084 20.766 13.2067L21.0965 13.3969C21.2715 13.5244 21.511 13.5273 21.7756 13.3746C22.3118 13.065 22.7465 12.2344 22.7465 11.5196C22.7465 11.1378 22.6225 10.8662 22.4253 10.7432Z" fill="#D1D1D1"></path>
      <path d="M22.7463 11.5195C22.7463 12.2343 22.3116 13.0649 21.7755 13.3745C21.2392 13.6841 20.8047 13.3555 20.8047 12.6406C20.8047 11.9256 21.2392 11.095 21.7755 10.7854C22.3116 10.4759 22.7463 10.8044 22.7463 11.5195Z" fill="white"></path>
    </g>
  </g>
  <defs>
    <clipPath id="clip0_121_19831">
      <rect width="24" height="24" fill="white"></rect>
    </clipPath>
  </defs>
</svg>
