<svg width="219" height="164" viewBox="0 0 219 164" fill="none" xmlns="http://www.w3.org/2000/svg">
<g clip-path="url(#clip0_5226_7538)">
<path d="M184.443 143.483C191.606 139.954 202.055 132.918 207.264 126.727C213.867 117.768 219.012 106.97 218.526 94.6621C215.061 71.8418 190.138 75.9833 180.397 59.7132C168.163 39.0481 156.076 14.4001 129.114 15.858C117.44 16.0376 105.153 20.158 94.4825 15.4143C81.7411 8.31465 68.5772 -9.56128 54.5681 6.48691C47.1092 14.231 44.3623 22.1653 35.9843 32.8465C22.9894 47.5846 -8.7795 60.5796 2.31372 96.5533C13.0055 117.155 35.8575 109.738 50.1413 122.976C56.7127 129.537 62.4706 138.919 66.6016 147.233C79.121 172.706 111.524 163.768 132.749 155.316C151.269 147.107 170.265 150.477 184.454 143.472L184.443 143.483Z" fill="#E6F0FD"/>
<g opacity="0.5">
<g opacity="0.57">
<path d="M90.6685 74.8528L171.406 119.035" stroke="#86B5F8" stroke-width="0.88" stroke-linecap="round" stroke-linejoin="round"/>
<path d="M74.7577 83.5583L155.495 127.741" stroke="#86B5F8" stroke-width="0.88" stroke-linecap="round" stroke-linejoin="round"/>
<path d="M58.8469 92.2639L139.584 136.447" stroke="#86B5F8" stroke-width="0.88" stroke-linecap="round" stroke-linejoin="round"/>
<path d="M42.936 100.98L123.673 145.152" stroke="#86B5F8" stroke-width="0.88" stroke-linecap="round" stroke-linejoin="round"/>
<path d="M170.804 101.582L91.3553 145.057" stroke="#86B5F8" stroke-width="0.88" stroke-linecap="round" stroke-linejoin="round"/>
<path d="M154.713 92.7921L75.2754 136.256" stroke="#86B5F8" stroke-width="0.88" stroke-linecap="round" stroke-linejoin="round"/>
<path d="M138.633 83.9915L59.1955 127.456" stroke="#86B5F8" stroke-width="0.88" stroke-linecap="round" stroke-linejoin="round"/>
<path d="M122.554 75.1909L43.1051 118.666" stroke="#86B5F8" stroke-width="0.88" stroke-linecap="round" stroke-linejoin="round"/>
<path d="M106.474 66.3903L27.0252 109.865L107.763 153.858L186.884 110.383L106.579 66.1473" stroke="#86B5F8" stroke-width="0.88" stroke-linecap="round" stroke-linejoin="round"/>
</g>
</g>
<path opacity="0.42" d="M184.38 82.2272L184.169 81.1918L184.686 81.0861L184.898 82.1215L184.38 82.2272ZM183.735 79.1316C183.661 78.7936 183.577 78.4449 183.503 78.1068L184.021 77.9906C184.105 78.3393 184.179 78.6773 184.253 79.026L183.735 79.1422V79.1316ZM182.996 76.0678C182.901 75.7297 182.806 75.3916 182.711 75.0536L183.218 74.9056C183.313 75.2437 183.408 75.5818 183.503 75.9304L182.996 76.0678ZM133.309 73.9337V73.4054C133.647 73.4054 133.995 73.3949 134.344 73.3632L134.386 73.8914C134.027 73.9231 133.668 73.9337 133.309 73.9337ZM131.175 73.8175C130.826 73.7858 130.477 73.7329 130.118 73.6907L130.192 73.1624C130.541 73.2152 130.889 73.2575 131.227 73.2892L131.175 73.8175ZM136.521 73.5639L136.394 73.0462C136.732 72.9617 137.07 72.8666 137.387 72.761L137.556 73.2575C137.218 73.3737 136.869 73.4688 136.521 73.5533V73.5639ZM128.026 73.3209C127.678 73.2469 127.329 73.173 126.991 73.0885L127.107 72.5708C127.445 72.6553 127.794 72.7293 128.132 72.7926L128.026 73.3103V73.3209ZM182.087 73.0568C181.971 72.7293 181.855 72.4017 181.728 72.0742L182.225 71.8841C182.351 72.2116 182.468 72.5497 182.594 72.8877L182.098 73.0568H182.087ZM124.931 72.5497C124.582 72.4546 124.244 72.3489 123.917 72.2327L124.075 71.7256C124.403 71.8312 124.741 71.9369 125.079 72.032L124.931 72.5391V72.5497ZM139.542 72.4229L139.289 71.958C139.595 71.7995 139.891 71.6199 140.176 71.4298L140.461 71.8735C140.165 72.0637 139.848 72.2538 139.532 72.4229H139.542ZM121.899 71.5143C121.561 71.3769 121.233 71.2396 120.916 71.1023L121.138 70.6163C121.444 70.7536 121.772 70.891 122.099 71.0283L121.899 71.5143ZM142.162 70.5529L141.803 70.162C142.057 69.9295 142.3 69.6865 142.532 69.433L142.923 69.7922C142.669 70.0563 142.416 70.3099 142.162 70.5529ZM180.915 70.1408C180.788 69.8556 180.619 69.5492 180.439 69.2217L180.893 68.9576C181.094 69.2956 181.253 69.6232 181.39 69.919L180.915 70.1408ZM119.014 70.0986C118.708 69.8978 118.412 69.6866 118.127 69.4753L118.454 69.0632C118.719 69.2745 119.004 69.4752 119.289 69.6549L119.004 70.0986H119.014ZM144.275 68.1229L143.842 67.8166C144.032 67.5419 144.222 67.246 144.413 66.9502L144.867 67.2249C144.677 67.5419 144.487 67.8377 144.286 68.1229H144.275ZM116.595 67.9433C116.373 67.6686 116.162 67.3623 115.961 67.0559L116.405 66.7706C116.584 67.0559 116.785 67.3411 116.996 67.6052L116.584 67.9328L116.595 67.9433ZM179.298 67.4679C179.097 67.1932 178.897 66.908 178.675 66.6227L179.097 66.3058C179.319 66.6016 179.531 66.8868 179.731 67.1615L179.298 67.4679ZM145.86 65.3338L145.385 65.1119C145.532 64.8055 145.67 64.4886 145.807 64.1611L146.293 64.3618C146.156 64.6999 146.008 65.0274 145.86 65.3443V65.3338ZM115 65.1119C114.873 64.7844 114.767 64.4358 114.662 64.0871L115.169 63.9498C115.264 64.2878 115.369 64.6154 115.486 64.9323L114.989 65.1225L115 65.1119ZM177.365 64.964C177.143 64.6999 176.921 64.4252 176.689 64.1611L177.09 63.8124C177.322 64.0871 177.555 64.3512 177.777 64.6259L177.365 64.964ZM175.294 62.5763C175.062 62.3122 174.819 62.0586 174.576 61.8051L174.966 61.4459C175.209 61.71 175.452 61.9636 175.685 62.2277L175.294 62.5869V62.5763ZM147.012 62.3333L146.504 62.1749C146.61 61.8473 146.705 61.5198 146.8 61.1712L147.307 61.3085C147.212 61.6572 147.107 61.9953 147.001 62.3333H147.012ZM114.25 61.9636C114.207 61.6255 114.176 61.2663 114.144 60.8965L114.672 60.8648C114.693 61.224 114.725 61.5727 114.767 61.9002L114.239 61.9636H114.25ZM173.118 60.2732C172.864 60.0196 172.621 59.7766 172.367 59.5336L172.737 59.1533C172.991 59.3963 173.234 59.6498 173.487 59.9034L173.107 60.2732H173.118ZM147.804 59.2378L147.286 59.1321C147.36 58.7941 147.424 58.456 147.487 58.1073L148.005 58.2024C147.941 58.5616 147.878 58.9103 147.804 59.2484V59.2378ZM114.64 58.7729H114.112C114.112 58.4137 114.144 58.0545 114.165 57.6953L114.693 57.7376C114.672 58.0968 114.651 58.4454 114.64 58.7835V58.7729ZM170.846 58.0756C170.582 57.8327 170.328 57.6002 170.064 57.3678L170.413 56.9769C170.667 57.2093 170.931 57.4417 171.195 57.6953L170.836 58.0862L170.846 58.0756ZM148.29 56.0789L147.762 56.0366C147.793 55.6774 147.814 55.3288 147.825 54.9907L148.353 55.0118C148.343 55.3604 148.322 55.7197 148.29 56.0789ZM168.469 56.0049C168.184 55.7725 167.909 55.5612 167.645 55.3605L167.962 54.9379C168.226 55.1386 168.511 55.3604 168.807 55.5929L168.469 56.0049ZM114.915 55.6457L114.387 55.5717C114.44 55.2337 114.493 54.8745 114.545 54.5258L115.063 54.6103C115 54.959 114.947 55.3076 114.905 55.6457H114.915ZM165.912 54.1772C165.627 53.9976 165.321 53.818 165.014 53.6278L165.278 53.1735C165.595 53.3637 165.902 53.5433 166.187 53.7229L165.902 54.1666L165.912 54.1772ZM147.772 52.9094C147.741 52.5607 147.698 52.2121 147.645 51.8846L148.163 51.8001C148.216 52.1487 148.269 52.4973 148.3 52.8671L147.772 52.9199V52.9094ZM163.176 52.5924C162.87 52.4234 162.563 52.2649 162.246 52.0959L162.489 51.631C162.806 51.8001 163.123 51.9691 163.429 52.1276L163.176 52.5924ZM115.475 52.5502L114.957 52.4234C115.042 52.0959 115.158 51.7472 115.306 51.388L115.792 51.5888C115.655 51.9268 115.549 52.2544 115.475 52.5502ZM160.376 51.1239L159.425 50.6485L159.658 50.1731L160.609 50.6485L160.376 51.1239ZM147.149 49.8772C147.043 49.5497 146.916 49.2328 146.779 48.9158L147.265 48.7045C147.402 49.032 147.54 49.3701 147.645 49.7082L147.149 49.8772ZM116.753 49.761L116.31 49.4758C116.489 49.1799 116.701 48.8841 116.912 48.5883L117.335 48.9053C117.123 49.1905 116.923 49.4863 116.753 49.761ZM157.524 49.7399C157.207 49.5814 156.89 49.4335 156.573 49.2856L156.795 48.8102C157.112 48.9581 157.429 49.106 157.756 49.2645L157.524 49.7399ZM154.65 48.3981L153.689 47.9544L153.91 47.479L154.872 47.9227L154.65 48.3981ZM48.4087 47.6586L47.9861 47.3522C48.1868 47.0775 48.4087 46.7923 48.6622 46.507L49.0637 46.8556C48.8207 47.1303 48.6094 47.405 48.4193 47.6586H48.4087ZM118.666 47.3205L118.285 46.9613C118.528 46.7077 118.782 46.4542 119.046 46.2112L119.405 46.6021C119.141 46.8451 118.898 47.0881 118.666 47.3311V47.3205ZM145.797 47.1092C145.606 46.8134 145.406 46.5387 145.205 46.264L145.628 45.9471C145.839 46.2323 146.05 46.5176 146.251 46.824L145.807 47.1092H145.797ZM151.766 47.0881L150.804 46.6549L151.026 46.1689L151.988 46.6021L151.766 47.0881ZM148.871 45.778C148.554 45.6301 148.237 45.4928 147.91 45.3554L148.121 44.8694C148.448 45.0068 148.776 45.1547 149.093 45.3026L148.871 45.7886V45.778ZM50.5217 45.3766L50.1625 44.9857C50.416 44.7532 50.6802 44.5208 50.9654 44.2778L51.3035 44.6793C51.0288 44.9117 50.7647 45.1441 50.5217 45.3766ZM121.011 45.2709L120.694 44.8483C120.979 44.637 121.275 44.4363 121.571 44.2355L121.856 44.6793C121.561 44.8694 121.275 45.0702 121.001 45.2709H121.011ZM143.831 44.7004C143.588 44.4468 143.335 44.2144 143.081 43.982L143.441 43.5911C143.705 43.8341 143.958 44.0771 144.212 44.3306L143.831 44.7004ZM145.955 44.5736C145.628 44.4468 145.3 44.3306 144.962 44.2144L145.142 43.7179C145.48 43.8341 145.807 43.9608 146.145 44.0771L145.955 44.5736ZM123.674 43.6333L123.431 43.1579C123.747 42.9994 124.064 42.841 124.392 42.6931L124.603 43.179C124.276 43.3269 123.969 43.4749 123.663 43.6228L123.674 43.6333ZM142.976 43.5488C142.638 43.4432 142.3 43.3481 141.972 43.2424L142.12 42.7353C142.458 42.8304 142.796 42.936 143.134 43.0417L142.976 43.5488ZM52.9411 43.3586L52.6241 42.936C52.8988 42.7247 53.184 42.5134 53.4799 42.3021L53.7968 42.7247C53.5116 42.936 53.2263 43.1473 52.9516 43.3586H52.9411ZM139.933 42.7036C139.595 42.6191 139.246 42.5346 138.908 42.4606L139.024 41.9429C139.362 42.0169 139.711 42.1014 140.06 42.1859L139.933 42.7036ZM141.486 42.6191C141.211 42.3972 140.926 42.1754 140.662 41.9641L140.99 41.5415C141.264 41.7528 141.539 41.9746 141.824 42.1965L141.497 42.6085L141.486 42.6191ZM126.558 42.4289L126.389 41.9324C126.716 41.8267 127.065 41.7211 127.414 41.6154L127.551 42.1225C127.213 42.2176 126.875 42.3233 126.558 42.4289ZM136.848 42.038C136.499 41.9746 136.151 41.9218 135.813 41.869L135.897 41.3513C136.246 41.4041 136.594 41.4675 136.943 41.5309L136.848 42.0486V42.038ZM129.579 41.6577L129.495 41.14C129.822 41.0872 130.182 41.0449 130.572 41.0132L130.615 41.5415C130.245 41.5626 129.907 41.6049 129.59 41.6577H129.579ZM133.731 41.6049C133.372 41.5732 133.024 41.552 132.685 41.5309L132.707 41.0027C133.055 41.0238 133.404 41.0449 133.774 41.0766L133.721 41.6049H133.731ZM55.5083 41.5098L55.2125 41.0766C55.4978 40.8759 55.7936 40.6857 56.0894 40.485L56.3852 40.9287C56.0894 41.1294 55.7936 41.3196 55.5083 41.5203V41.5098ZM138.993 40.654C138.707 40.4216 138.433 40.1892 138.179 39.9567L138.538 39.5658C138.792 39.7877 139.056 40.0201 139.331 40.242L138.993 40.654ZM58.1601 39.7771L57.8749 39.3334C58.1707 39.1432 58.4771 38.9636 58.7729 38.7734L59.0476 39.2277C58.7412 39.4179 58.4454 39.5975 58.1496 39.7877L58.1601 39.7771ZM136.721 38.3825C136.489 38.1184 136.267 37.8437 136.035 37.5902L136.425 37.2415C136.658 37.5057 136.89 37.7698 137.123 38.0445L136.721 38.3825ZM60.8648 38.1395L60.6007 37.6853C60.907 37.5057 61.2134 37.326 61.5198 37.157L61.7839 37.6113C61.4776 37.7909 61.1712 37.9599 60.8753 38.1395H60.8648ZM63.6117 36.5759L63.3581 36.1111C63.6645 35.942 63.9709 35.773 64.2878 35.604L64.5414 36.0688C64.235 36.2379 63.9181 36.4069 63.6117 36.5759ZM134.608 36.0477C134.365 35.7941 134.122 35.5511 133.869 35.2976L134.238 34.9172C134.492 35.1602 134.735 35.4138 134.989 35.6673L134.608 36.0371V36.0477ZM66.4008 35.0651L66.1578 34.6003C66.4748 34.4312 66.7812 34.2728 67.0981 34.1143L67.3411 34.5792C67.0242 34.7376 66.7178 34.9067 66.4008 35.0651ZM132.337 33.8607C132.073 33.6283 131.809 33.3959 131.544 33.174L131.882 32.7725C132.147 33.005 132.421 33.2374 132.685 33.4698L132.337 33.8607ZM69.2217 33.6177L68.9892 33.1423L69.9401 32.6669L70.1725 33.1423L69.2217 33.6072V33.6177ZM72.0636 32.2232L71.8418 31.7477L72.8032 31.2935L73.0251 31.7689L72.0742 32.2232H72.0636ZM129.907 31.8534C129.632 31.6421 129.347 31.4308 129.062 31.2301L129.368 30.7969C129.653 31.0082 129.939 31.2195 130.224 31.4308L129.907 31.8534ZM74.9373 30.892L74.7155 30.406C75.043 30.2581 75.3599 30.1207 75.6874 29.9728L75.8987 30.4588C75.5818 30.5962 75.2543 30.7441 74.9373 30.892ZM127.329 30.0468C127.033 29.8566 126.737 29.6664 126.442 29.4868L126.716 29.0325C127.023 29.2122 127.318 29.4023 127.614 29.5925L127.329 30.0362V30.0468ZM77.8321 29.6136L77.6208 29.1276C77.9483 28.9903 78.2759 28.8529 78.5928 28.7156L78.7935 29.2016C78.4766 29.3389 78.1491 29.4763 77.8216 29.6136H77.8321ZM124.614 28.4515C124.307 28.2824 123.99 28.124 123.684 27.976L123.917 27.5006C124.233 27.6591 124.55 27.8176 124.857 27.9866L124.603 28.4515H124.614ZM80.7586 28.4198L80.5685 27.9232C80.9065 27.7964 81.234 27.6591 81.5616 27.5429L81.7517 28.0394C81.4242 28.1662 81.0967 28.293 80.7692 28.4198H80.7586ZM83.7274 27.3105L83.5478 26.8139C83.8859 26.6977 84.2239 26.5815 84.5514 26.4653L84.7205 26.9618C84.393 27.0675 84.0655 27.1837 83.7274 27.2999V27.3105ZM121.782 27.0886C121.465 26.9512 121.138 26.8139 120.81 26.6871L121.011 26.2011C121.339 26.3279 121.666 26.4653 121.994 26.6132L121.782 27.0992V27.0886ZM86.7384 26.3385L86.5905 25.8314C86.8123 25.768 87.0342 25.7046 87.2455 25.6518L87.6153 25.5567L87.7526 26.0638L87.3829 26.1589C87.1716 26.2117 86.9603 26.2751 86.7384 26.3385ZM118.856 25.9581C118.528 25.8419 118.19 25.7363 117.863 25.6306L118.021 25.1235C118.359 25.2292 118.697 25.3348 119.035 25.451L118.866 25.9476L118.856 25.9581ZM89.8022 25.5567L89.686 25.039C90.0347 24.9545 90.3727 24.8805 90.7214 24.8066L90.8376 25.3242C90.4995 25.3982 90.1509 25.4827 89.8128 25.5567H89.8022ZM115.834 25.0707C115.496 24.9862 115.158 24.9016 114.81 24.8277L114.926 24.31C115.274 24.384 115.612 24.4685 115.961 24.553L115.834 25.0601V25.0707ZM92.8872 24.9016L92.7921 24.384C93.1408 24.3206 93.4894 24.2572 93.8381 24.1938L93.9331 24.7115C93.5845 24.7749 93.2464 24.8383 92.8978 24.9016H92.8872ZM112.749 24.4157C112.401 24.3523 112.063 24.2994 111.714 24.2466L111.788 23.7289C112.137 23.7818 112.485 23.8346 112.844 23.898L112.749 24.4157ZM95.9933 24.3734L95.9193 23.8451C96.268 23.7923 96.6166 23.7501 96.9653 23.6972L97.0287 24.2255C96.68 24.2677 96.3314 24.3206 95.9827 24.3734H95.9933ZM99.1311 23.9931L99.0783 23.4648C99.4269 23.4331 99.7861 23.4014 100.135 23.3697L100.177 23.898C99.8284 23.9297 99.4797 23.9614 99.1311 23.9931ZM109.633 23.9825C109.284 23.9508 108.935 23.9191 108.587 23.8874L108.629 23.3592C108.988 23.3909 109.337 23.4225 109.686 23.4542L109.633 23.9825ZM102.279 23.7712L102.258 23.2429C102.618 23.2324 102.966 23.2218 103.315 23.2112V23.7395C102.977 23.7395 102.628 23.7606 102.279 23.7712ZM106.484 23.7606C106.136 23.7501 105.787 23.7395 105.438 23.7289V23.2007C105.798 23.2007 106.157 23.2112 106.505 23.2324L106.484 23.7606Z" fill="#86B5F8"/>
<path opacity="0.74" d="M158.627 111.389L149.233 116.684L177.562 132.867L187.252 127.719L158.627 111.389Z" fill="#D1BFF8"/>
<path d="M183.289 116.845L156.899 101.6L183.956 86.356L210.347 101.6L183.289 116.845Z" fill="#D1BFF8"/>
<path d="M210.507 116.018L183.45 131.262L183.289 116.845L210.347 101.6L210.507 116.018Z" fill="#A37FF1"/>
<path d="M183.45 131.262L157.072 116.018L156.899 101.6L183.289 116.845L183.45 131.262Z" fill="#7640EA"/>
<path d="M159.54 121.449C159.54 121.449 159.911 124.609 159.75 125.46C159.614 126.164 157.257 128.546 157.923 128.793L163.342 129.164C164.021 129.41 163.243 126.707 163.49 126.041L163.922 123.152C163.873 122.473 164.354 122.226 163.675 121.992L160.75 120.943C160.071 120.696 159.762 120.795 159.528 121.461L159.54 121.449Z" fill="#F2B588"/>
<path d="M163.54 121.992L159.59 121.72L157.874 108.747L157.146 95.231C157.664 93.2313 160.849 91.5279 162.848 92.0463L165.428 92.7129L163.441 108.908L163.552 121.992H163.54Z" fill="#F2B588"/>
<path d="M167.724 130.348L162.379 128.522C161.873 128.522 162.922 126.485 162.922 125.954L161.293 98.3539C161.293 96.6875 163.194 94.3916 164.786 94.3916L167.008 95.0828C167.514 95.0828 169.872 103.094 168.23 101.539C168.23 101.539 169.699 108.834 169.699 111.66C169.699 115.771 167.255 122.202 167.354 125.72C167.403 127.546 168.243 130.348 167.736 130.348H167.724Z" fill="#FFD1A6"/>
<path d="M190.202 105.143C190.202 105.143 181.672 105.612 174.957 105.674C172.476 105.698 169.971 104.785 168.638 105.019C167.304 105.254 166.675 108.068 166.675 108.068L165.638 98.6007H189.757L190.189 105.143H190.202Z" fill="#FFD1A6"/>
<path d="M171.748 105.402L163.034 92.3549L166.811 90.0344L177.562 87.1336L193.547 86.4053C196.978 92.7253 200.052 101.934 192.843 104.587C192.843 104.587 186.56 106.254 181.672 106.279C177.167 106.303 171.748 105.402 171.748 105.402Z" fill="#4B91F5"/>
<path d="M164.453 128.287C164.453 128.287 165.181 130.151 165.231 130.83C165.268 131.274 165.391 133.348 165.391 133.348C165.391 133.348 164.256 133.78 160.96 133.681C157.405 133.521 156.899 133.286 154.788 133.595C152.504 133.916 151.097 133.57 150.011 132.854C149.628 132.607 149.172 131.608 149.925 131.04C150.678 130.472 155.553 129.275 155.553 129.275L158.257 126.423C158.257 126.423 158.923 126.621 159.293 127.201C159.417 127.386 159.232 128.028 159.565 128.25C161.182 129.336 161.54 128.583 162.626 128.744C164.28 128.991 164.453 128.287 164.453 128.287Z" fill="#456077"/>
<path opacity="0.53" d="M164.453 128.287C164.453 128.287 165.181 130.151 165.23 130.83C165.268 131.274 165.391 133.348 165.391 133.348C165.391 133.348 164.255 133.78 160.96 133.681C157.405 133.595 157.294 133.237 155.183 133.545C152.899 133.866 151.356 133.508 150.171 132.916C149.764 132.718 149.184 131.607 149.924 131.04C150.665 130.472 155.504 129.311 155.504 129.311L158.121 126.546L158.17 126.485C158.17 126.485 158.812 126.596 159.244 127.176C159.417 127.423 159.367 128.028 159.515 128.176C159.984 128.633 160.873 128.99 162.626 128.744C164.28 128.509 164.453 128.287 164.453 128.287Z" fill="#8395A4"/>
<path d="M153.344 132.916C150.159 132.768 149.838 131.534 149.801 131.2C149.801 131.151 149.826 131.101 149.863 131.077L150.147 130.904C150.147 130.904 150.209 131.509 150.974 131.966C151.998 132.595 153.726 132.435 154.455 132.373C155.084 132.324 155.85 132.249 156.467 132.262C159.355 132.336 162.503 132.583 165.317 132.188C165.317 132.83 165.502 132.916 164.7 132.953C161.244 133.262 159.491 132.805 156.257 132.78L153.331 132.916H153.344Z" fill="#C1CAD1"/>
<path opacity="0.45" d="M159.256 127.497C159.256 127.497 157.578 129.065 156.936 129.312C156.504 129.472 155.516 129.287 155.516 129.287L158.158 126.497C158.158 126.497 158.652 126.608 158.861 126.769C159.071 126.929 159.232 127.176 159.232 127.176L159.256 127.485V127.497Z" fill="#456077"/>
<path opacity="0.86" d="M157.01 129.127L155.862 129.028C155.862 129.028 155.788 128.978 155.788 128.941C155.788 128.904 155.837 128.867 155.874 128.867L156.874 128.954L156.504 128.201C156.504 128.201 156.504 128.139 156.504 128.114C156.516 128.09 156.553 128.077 156.578 128.077L157.355 128.164L157.17 127.596C157.17 127.596 157.17 127.547 157.17 127.522C157.183 127.497 157.207 127.485 157.232 127.485L158.232 127.423L157.639 127.078C157.639 127.078 157.59 127.003 157.615 126.966C157.639 126.929 157.689 126.917 157.726 126.942L158.553 127.423C158.553 127.423 158.602 127.473 158.59 127.51C158.577 127.547 158.553 127.571 158.516 127.571L157.355 127.645L157.553 128.238C157.553 128.238 157.553 128.3 157.541 128.312C157.528 128.337 157.491 128.349 157.467 128.337L156.714 128.263L157.084 129.015C157.084 129.015 157.084 129.077 157.084 129.102C157.072 129.127 157.047 129.139 157.01 129.139V129.127Z" fill="#E6E9EC"/>
<path d="M175.525 70.2105L173.242 77.5303L172.291 78.5301C172.291 78.5301 171.427 82.9738 172.958 83.27C174.118 83.4922 177.179 81.3444 177.426 80.9988L179.611 71.5683L175.525 70.2105Z" fill="#F2B588"/>
<path d="M181.5 60.7553H181.524C180.598 60.1135 179.068 59.9036 177.377 61.2491C175.686 62.5945 174.809 67.2974 174.809 67.2974L174.279 71.914L178.796 72.6792C179.352 71.8152 183.03 65.3225 183.104 64.6312C183.289 62.9648 182.314 61.3108 181.487 60.7553H181.5Z" fill="#267AF2"/>
<path d="M189.967 58.9655C191.523 59.5333 192.609 59.9777 195.139 61.175C195.633 61.4095 196.83 63.4339 197.201 63.977C197.361 64.2239 197.361 64.335 197.46 64.6559C197.534 64.8904 197.719 65.9767 197.707 66.0878C196.793 71.198 194.436 81.0852 193.769 84.6525C193.559 85.7511 194.473 86.7386 194.917 88.0717C195.201 88.9357 195.732 90.7379 195.732 90.7379C195.806 91.0095 194.769 93.2807 190.424 93.8979C184.388 94.9718 174.994 94.1201 175.389 88.9234C176.55 83.4675 177.229 79.3078 178.006 75.7034C178.451 73.6297 175.686 74.753 177.364 66.1001C177.611 64.8287 179.08 60.6566 179.821 60.385C181.425 59.8049 189.98 58.9655 189.98 58.9655H189.967Z" fill="#86B5F8"/>
<path d="M163.071 134.829C161.812 134.829 161.565 133.953 161.565 132.706L161.207 129.966C162.33 127.979 163.959 124.917 164.206 125.448L164.638 125.584C165.885 125.584 167.403 128.114 167.872 129.62L168.317 131.83C168.317 133.076 165.478 134.805 164.231 134.805H163.083V134.842L163.071 134.829Z" fill="#FFD1A6"/>
<path d="M168.638 132.965C168.588 132.311 168.255 131.163 168.094 130.645C168.057 130.534 167.909 130.497 167.823 130.583C167.465 130.953 166.65 131.731 165.749 131.966C165.194 132.101 164.021 132.015 163.317 131.595C163.083 131.459 163.169 130.867 162.997 130.707C162.515 130.237 161.454 129.361 160.898 130.163C160.639 130.558 160.232 131.213 159.935 131.472C159.553 131.817 159.084 132.965 158.355 133.397C156.17 134.681 152.764 135.681 152.134 135.866C152.06 135.891 151.998 135.94 151.974 136.014C151.838 136.36 151.702 137.434 154.319 138.643C157.504 140.112 161.762 137.533 164.07 136.841C165.28 136.471 167.811 136.668 168.551 135.804C168.921 135.372 168.687 133.694 168.638 133.002V132.965Z" fill="#8495A3"/>
<path d="M155.405 138.063C153.936 137.619 153.467 137.335 152.307 135.99C152.258 135.94 152.208 135.829 152.208 135.829C152.208 135.829 152.418 135.767 152.554 135.718C152.616 135.693 152.702 135.681 152.702 135.681C152.702 135.681 152.813 135.841 152.924 135.965C154.121 137.286 156.035 137.928 157.812 137.668C158.911 137.52 159.972 137.002 161.022 136.533C162.503 135.841 164.502 135.632 166.28 135.224C167.243 135.002 168.057 134.656 168.699 134.224C168.773 134.36 168.773 134.385 168.749 134.693C168.736 134.965 168.736 135.064 168.662 135.298C167.86 135.817 167.378 135.829 166.403 135.953C166.403 135.953 165.009 136.113 164.614 136.175C163.774 136.286 162.984 136.31 161.515 136.989C160.417 137.508 159.293 138.063 158.084 138.224C157.343 138.31 156.528 138.397 155.393 138.051L155.405 138.063Z" fill="#E6E9EC"/>
<path opacity="0.45" d="M162.984 130.768C162.33 131.422 160.552 133.212 159.861 133.792C159.861 133.792 159.269 133.755 159.034 133.632C158.911 133.57 158.75 133.052 158.75 133.052L161.12 129.904C161.639 129.509 162.861 130.41 162.997 130.781L162.984 130.768Z" fill="#456077"/>
<path opacity="0.86" d="M160.034 133.62L159.985 133.607L159.022 132.916C159.022 132.916 158.96 132.842 158.972 132.805C158.985 132.768 159.047 132.718 159.047 132.718L159.787 132.558V131.805L159.861 131.682H160.503L160.417 130.99C160.392 130.941 160.417 130.892 160.441 130.879C160.503 130.818 160.565 130.855 160.565 130.855C160.565 130.855 161.429 131.459 161.75 131.645C161.799 131.669 161.824 131.694 161.812 131.756C161.812 131.817 161.774 131.854 161.737 131.854C161.392 131.867 160.775 131.854 160.775 131.854L160.91 132.422C160.91 132.422 160.91 132.472 160.91 132.496C160.898 132.533 160.849 132.546 160.849 132.546L160.046 132.706L160.17 133.471C160.17 133.471 160.17 133.57 160.133 133.57H160.083V133.595L160.034 133.62ZM159.812 132.743L159.293 132.854L159.874 133.286L159.812 132.768V132.743ZM160.688 132.385L160.528 131.867H159.997L159.985 132.546L160.701 132.373L160.688 132.385ZM161.404 131.706L160.639 131.163L160.725 131.731H161.392L161.404 131.719V131.706Z" fill="#E6E9EC"/>
<path fill-rule="evenodd" clip-rule="evenodd" d="M166.218 106.069L139.766 90.7873L157.405 80.6038L183.857 95.8728L166.218 106.056V106.069Z" fill="#C1CAD1"/>
<path d="M166.243 106.044H166.218V107.303C166.305 107.303 166.391 107.278 166.477 107.254C166.514 107.229 166.564 107.217 166.601 107.18L183.61 97.3541C183.758 97.2677 183.857 97.1072 183.857 96.9344V95.8729L166.231 106.056L166.243 106.044Z" fill="#84B6FD"/>
<path opacity="0.95" d="M166.206 106.044L139.778 90.7873V91.9599C139.778 92.071 139.84 92.1698 139.926 92.2315L165.873 107.217L165.959 107.266C166.045 107.303 166.132 107.328 166.231 107.328V106.081H166.206V106.069V106.044Z" fill="#639FF6"/>
<path opacity="0.55" fill-rule="evenodd" clip-rule="evenodd" d="M170.798 100.835L148.036 87.7014L156.578 82.7763L179.339 95.9099L170.798 100.835Z" fill="#EEF5FE"/>
<path opacity="0.66" fill-rule="evenodd" clip-rule="evenodd" d="M157.158 99.0575L150.394 95.1446L154.85 92.5031L161.626 96.416L157.17 99.0575H157.158Z" fill="#E5EFFE"/>
<path fill-rule="evenodd" clip-rule="evenodd" d="M150.394 95.1446L157.17 99.0698L161.614 96.4283L154.862 92.5031L161.355 96.4283L157.158 98.9341L150.394 95.1446Z" fill="#88B6F8"/>
<path opacity="0.34" d="M155.652 85.9363L154.146 85.0599L154.084 85.0969L155.664 85.998L156.812 85.3314L156.751 85.2944L155.664 85.9116L155.652 85.9363Z" fill="#3C7DE9"/>
<path opacity="0.34" d="M157.096 85.1092L155.59 84.2328L155.529 84.2699L157.109 85.1833L158.257 84.5168L158.195 84.4797L157.121 85.0969L157.096 85.1092Z" fill="#3C7DE9"/>
<path opacity="0.34" d="M154.171 86.8003L152.665 85.924L152.591 85.961L154.171 86.8744L155.319 86.2078L155.245 86.1708L154.171 86.788V86.8003Z" fill="#3C7DE9"/>
<path opacity="0.34" d="M152.591 87.7137L151.085 86.8373L151.023 86.8744L152.603 87.7878L153.751 87.1212L153.689 87.0842L152.616 87.7014L152.591 87.7137Z" fill="#3C7DE9"/>
<path opacity="0.34" d="M151.097 88.5778L149.591 87.7137L149.53 87.7508L151.11 88.6642L152.258 87.9977L152.196 87.9606L151.122 88.5778H151.097Z" fill="#3C7DE9"/>
<path opacity="0.34" d="M157.615 87.0719L156.109 86.2078L156.047 86.2449L157.627 87.1583L158.775 86.4917L158.713 86.4547L157.639 87.0719H157.615Z" fill="#3C7DE9"/>
<path opacity="0.34" d="M158.059 87.3311L157.997 87.3681L159.577 88.2815L160.725 87.615L160.664 87.5779L159.577 88.1951L158.071 87.3187L158.059 87.3311Z" fill="#3C7DE9"/>
<path opacity="0.34" d="M160.022 88.4544L159.96 88.4914L161.54 89.4048L162.688 88.7383L162.626 88.7012L161.552 89.3184L160.046 88.442L160.022 88.4544Z" fill="#3C7DE9"/>
<path opacity="0.34" d="M161.972 89.59L161.91 89.6271L163.49 90.5281L164.638 89.8739L164.564 89.8369L163.49 90.4541L161.984 89.59H161.972Z" fill="#3C7DE9"/>
<path opacity="0.34" d="M163.922 90.7133L163.861 90.7503L165.441 91.6637L166.589 90.9972L166.527 90.9601L165.453 91.5773L163.947 90.7133H163.922Z" fill="#3C7DE9"/>
<path opacity="0.34" d="M165.885 91.8488L165.823 91.8859L167.403 92.7993L168.539 92.1327L168.477 92.0957L167.403 92.7129L165.885 91.8365V91.8488Z" fill="#3C7DE9"/>
<path opacity="0.34" d="M167.835 92.9721L167.773 93.0092L169.353 93.9226L170.501 93.256L170.44 93.219L169.353 93.8362L167.848 92.9598L167.835 92.9721Z" fill="#3C7DE9"/>
<path opacity="0.34" d="M169.798 94.1077L169.736 94.1448L171.316 95.0458L172.464 94.3916L172.402 94.3546L171.328 94.9718L169.823 94.1077H169.798Z" fill="#3C7DE9"/>
<path opacity="0.34" d="M173.254 96.095L171.748 95.231L171.686 95.268L173.254 96.1814L174.402 95.5149L174.34 95.4778L173.254 96.095Z" fill="#3C7DE9"/>
<path opacity="0.34" d="M175.217 97.2306L173.698 96.3542L173.637 96.3913L175.217 97.3047L176.352 96.6382L176.291 96.6011L175.217 97.2183V97.2306Z" fill="#3C7DE9"/>
<path opacity="0.34" d="M159.047 86.2449L157.541 85.3685L157.479 85.4178L159.059 86.3189L160.207 85.6524L160.145 85.6153L159.059 86.2325L159.047 86.2449Z" fill="#3C7DE9"/>
<path opacity="0.34" d="M159.491 86.5041L159.429 86.5411L161.009 87.4545L162.157 86.788L162.095 86.751L161.022 87.3681L159.503 86.5041H159.491Z" fill="#3C7DE9"/>
<path opacity="0.34" d="M161.454 87.6273L161.392 87.6644L162.96 88.5778L164.107 87.9112L164.033 87.8742L162.96 88.4914L161.454 87.615V87.6273Z" fill="#3C7DE9"/>
<path opacity="0.34" d="M163.404 88.7629L163.342 88.7999L164.922 89.7133L166.07 89.0468L166.008 89.0098L164.934 89.6269L163.429 88.7505L163.404 88.7629Z" fill="#3C7DE9"/>
<path opacity="0.34" d="M165.354 89.8862L165.292 89.9233L166.872 90.8244L168.008 90.1701L167.946 90.1208L166.872 90.738L165.354 89.8739V89.8862Z" fill="#3C7DE9"/>
<path opacity="0.34" d="M167.317 91.0219L167.255 91.0589L168.835 91.9723L169.983 91.3058L169.921 91.2687L168.847 91.8859L167.329 91.0219H167.317Z" fill="#3C7DE9"/>
<path opacity="0.34" d="M169.267 92.1452L169.205 92.1822L170.785 93.0956L171.933 92.4291L171.872 92.392L170.798 93.0092L169.292 92.1328L169.267 92.1452Z" fill="#3C7DE9"/>
<path opacity="0.34" d="M171.23 93.2684L171.168 93.3054L172.748 94.2189L173.896 93.5523L173.834 93.5153L172.748 94.1324L171.242 93.256L171.23 93.2684Z" fill="#3C7DE9"/>
<path opacity="0.34" d="M174.686 95.268L173.168 94.404L173.106 94.441L174.686 95.3545L175.822 94.6879L175.76 94.6385L174.686 95.2557V95.268Z" fill="#3C7DE9"/>
<path opacity="0.34" d="M177.722 95.7865L176.649 96.4037L175.143 95.5273L175.081 95.5643L176.649 96.4777L177.796 95.8112L177.722 95.7742V95.7865Z" fill="#3C7DE9"/>
<path opacity="0.34" d="M156.121 87.9359L154.603 87.0595L154.541 87.0965L156.121 88.01L157.257 87.3434L157.195 87.3064L156.121 87.9236V87.9359Z" fill="#3C7DE9"/>
<path opacity="0.34" d="M156.566 88.1952L156.504 88.2322L158.084 89.1333L159.232 88.4791L159.17 88.4421L158.096 89.0592L156.578 88.1952H156.566Z" fill="#3C7DE9"/>
<path opacity="0.34" d="M158.528 89.3184L158.466 89.3554L160.046 90.2689L161.194 89.6023L161.133 89.5653L160.059 90.1825L158.553 89.3184H158.528Z" fill="#3C7DE9"/>
<path opacity="0.34" d="M160.478 90.4417L160.417 90.4787L161.997 91.3922L163.145 90.7256L163.083 90.6886L162.009 91.3058L160.503 90.4294L160.478 90.4417Z" fill="#3C7DE9"/>
<path opacity="0.34" d="M162.441 91.5773L162.379 91.6143L163.947 92.5277L165.095 91.8612L165.033 91.8242L163.947 92.4413L162.441 91.5649V91.5773Z" fill="#3C7DE9"/>
<path opacity="0.34" d="M164.391 92.7005L164.33 92.7375L165.91 93.651L167.058 92.9844L166.996 92.935L165.922 93.5522L164.404 92.6882L164.391 92.7005Z" fill="#3C7DE9"/>
<path opacity="0.34" d="M166.354 93.8362L166.28 93.8732L167.86 94.7867L169.008 94.1201L168.934 94.0831L167.86 94.7002L166.354 93.8239V93.8362Z" fill="#3C7DE9"/>
<path opacity="0.34" d="M168.304 94.9594L168.243 94.9965L169.823 95.9099L170.97 95.2433L170.909 95.2063L169.835 95.8235L168.329 94.9471L168.304 94.9594Z" fill="#3C7DE9"/>
<path opacity="0.34" d="M171.76 96.959L170.255 96.0826L170.193 96.1197L171.773 97.0208L172.921 96.3542L172.859 96.3172L171.785 96.9344L171.76 96.959Z" fill="#3C7DE9"/>
<path opacity="0.34" d="M173.723 98.0824L172.205 97.2183L172.143 97.2554L173.723 98.1688L174.871 97.5022L174.809 97.4652L173.735 98.0824H173.723Z" fill="#3C7DE9"/>
<path opacity="0.34" d="M154.541 88.837L153.035 87.9606L152.961 87.9977L154.541 88.9111L155.689 88.2445L155.615 88.2075L154.541 88.8247V88.837Z" fill="#3C7DE9"/>
<path opacity="0.34" d="M154.998 89.1086L154.936 89.1456L156.516 90.059L157.664 89.3925L157.602 89.3554L156.528 89.9726L155.023 89.1086H154.998Z" fill="#3C7DE9"/>
<path opacity="0.34" d="M156.948 90.2318L156.886 90.2689L158.466 91.1823L159.602 90.5157L159.54 90.4787L158.466 91.0959L156.948 90.2195V90.2318Z" fill="#3C7DE9"/>
<path opacity="0.34" d="M158.911 91.3551L158.849 91.3921L160.429 92.3056L161.577 91.639L161.515 91.602L160.441 92.2192L158.936 91.3428L158.911 91.3551Z" fill="#3C7DE9"/>
<path opacity="0.34" d="M160.861 92.4784L160.799 92.5154L162.379 93.4165L163.527 92.7499L163.466 92.7129L162.392 93.3301L160.886 92.4537L160.861 92.4784Z" fill="#3C7DE9"/>
<path opacity="0.34" d="M162.811 93.614L162.75 93.651L164.317 94.5644L165.465 93.8979L165.404 93.8608L164.317 94.478L162.811 93.614Z" fill="#3C7DE9"/>
<path opacity="0.34" d="M164.762 94.7496L164.7 94.7866L166.28 95.7L167.416 95.0335L167.354 94.9965L166.28 95.6136L164.762 94.7372V94.7496Z" fill="#3C7DE9"/>
<path opacity="0.34" d="M166.724 95.8728L166.65 95.9098L168.23 96.8233L169.378 96.1567L169.304 96.1197L168.23 96.7369L166.724 95.8605V95.8728Z" fill="#3C7DE9"/>
<path opacity="0.34" d="M170.193 97.8725L168.687 97.0084L168.625 97.0455L170.205 97.9465L171.353 97.2923L171.291 97.2553L170.218 97.8725H170.193Z" fill="#3C7DE9"/>
<path opacity="0.34" d="M172.143 98.9958L170.637 98.1318L170.576 98.1688L172.155 99.0822L173.303 98.4157L173.242 98.3786L172.168 98.9958H172.143Z" fill="#3C7DE9"/>
<path opacity="0.34" d="M153.048 89.7011L151.542 88.8247L151.48 88.8617L153.06 89.7752L154.208 89.1086L154.146 89.0716L153.072 89.6888L153.048 89.7011Z" fill="#3C7DE9"/>
<path opacity="0.34" d="M167.823 96.9961L166.749 97.6133L165.169 96.6999L164.786 96.4777L163.206 95.5643L162.824 95.3421L161.244 94.4287L160.861 94.2065L159.281 93.2931L158.898 93.0709L157.318 92.1698L156.936 91.9476L155.356 91.0342L153.467 89.9356L153.406 89.9726L155.356 91.1082L156.936 92.0093L157.318 92.2315L158.898 93.1449L159.281 93.3671L160.861 94.2805L161.244 94.5027L162.824 95.4162L163.206 95.6383L164.786 96.5394L165.169 96.7616L166.749 97.675L167.897 97.0208L167.835 96.9838L167.823 96.9961Z" fill="#3C7DE9"/>
<path opacity="0.34" d="M168.699 98.7366L167.193 97.8602L167.132 97.8972L168.699 98.8106L169.847 98.1441L169.785 98.107L168.699 98.7242V98.7366Z" fill="#3C7DE9"/>
<path opacity="0.34" d="M170.65 99.8599L169.144 98.9835L169.082 99.0205L170.662 99.9216L171.81 99.255L171.748 99.218L170.674 99.8352L170.65 99.8599Z" fill="#3C7DE9"/>
<path opacity="0.8" d="M156.812 85.3191L155.294 84.455L154.22 85.0722L155.726 85.9486L156.812 85.3314V85.3191Z" fill="white"/>
<path opacity="0.8" d="M158.763 86.4548L157.244 85.5784L156.171 86.1955L157.676 87.0596L158.75 86.4424L158.763 86.4548Z" fill="white"/>
<path opacity="0.8" d="M158.133 87.3311L159.639 88.2075L160.725 87.5903L159.219 86.7139L158.146 87.3311H158.133Z" fill="white"/>
<path opacity="0.8" d="M160.083 88.4543L161.589 89.3307L162.663 88.7136L161.157 87.8372L160.083 88.4543Z" fill="white"/>
<path opacity="0.8" d="M162.034 89.59L163.552 90.4541L164.626 89.8369L163.12 88.9728L162.034 89.59Z" fill="white"/>
<path opacity="0.8" d="M163.996 90.7132L165.502 91.5773L166.576 90.9601L165.058 90.0837L163.984 90.7009L163.996 90.7132Z" fill="white"/>
<path opacity="0.8" d="M165.947 91.8488L167.453 92.7252L168.526 92.108L167.021 91.2316L165.934 91.8488H165.947Z" fill="white"/>
<path opacity="0.8" d="M167.909 92.9721L169.415 93.8485L170.501 93.2314L168.995 92.3673L167.922 92.9845L167.909 92.9721Z" fill="white"/>
<path opacity="0.8" d="M169.86 94.1077L171.378 94.9718L172.452 94.3546L170.933 93.4905L169.86 94.1077Z" fill="white"/>
<path opacity="0.8" d="M174.402 95.4779L172.884 94.6015L171.81 95.2187L173.316 96.0827L174.402 95.4655V95.4779Z" fill="white"/>
<path opacity="0.8" d="M176.352 96.6135L174.846 95.7371L173.772 96.3542L175.278 97.2306L176.352 96.6135Z" fill="white"/>
<path opacity="0.8" d="M158.17 84.4921L156.664 83.6157L155.59 84.2328L157.096 85.1092L158.17 84.4921Z" fill="white"/>
<path opacity="0.8" d="M160.195 85.6277L158.689 84.7636L157.615 85.3808L159.121 86.2572L160.207 85.64L160.195 85.6277Z" fill="white"/>
<path opacity="0.8" d="M159.565 86.5041L161.071 87.3681L162.145 86.751L160.639 85.8746L159.565 86.4918V86.5041Z" fill="white"/>
<path opacity="0.8" d="M161.515 87.6274L163.021 88.5038L164.095 87.8866L162.589 87.0102L161.515 87.6274Z" fill="white"/>
<path opacity="0.8" d="M163.466 88.7629L164.984 89.6393L166.058 89.0221L164.539 88.1581L163.466 88.7753V88.7629Z" fill="white"/>
<path opacity="0.8" d="M165.428 89.8862L166.934 90.7503L168.008 90.1331L166.502 89.269L165.416 89.8862H165.428Z" fill="white"/>
<path opacity="0.8" d="M167.378 91.0218L168.884 91.8859L169.958 91.2687L168.452 90.3923L167.378 91.0095V91.0218Z" fill="white"/>
<path opacity="0.8" d="M169.341 92.1451L170.859 93.0215L171.933 92.4043L170.427 91.5279L169.353 92.1451H169.341Z" fill="white"/>
<path opacity="0.8" d="M171.291 93.2684L172.797 94.1448L173.884 93.5276L172.365 92.6636L171.291 93.2808V93.2684Z" fill="white"/>
<path opacity="0.8" d="M175.834 94.6509L174.328 93.7868L173.254 94.404L174.76 95.268L175.834 94.6509Z" fill="white"/>
<path opacity="0.8" d="M177.784 95.7865L176.278 94.9101L175.204 95.5273L176.71 96.4037L177.784 95.7865Z" fill="white"/>
<path opacity="0.8" d="M155.306 86.1832L153.801 85.3068L152.727 85.9239L154.233 86.8003L155.306 86.1832Z" fill="white"/>
<path opacity="0.8" d="M157.269 87.3064L155.763 86.4423L154.689 87.0595L156.195 87.9359L157.269 87.3187V87.3064Z" fill="white"/>
<path opacity="0.8" d="M156.64 88.1952L158.145 89.0592L159.219 88.4421L157.713 87.578L156.627 88.1952H156.64Z" fill="white"/>
<path opacity="0.8" d="M158.59 89.3184L160.108 90.1825L161.182 89.5653L159.664 88.6889L158.59 89.3061V89.3184Z" fill="white"/>
<path opacity="0.8" d="M160.552 90.4416L162.071 91.318L163.145 90.7009L161.626 89.8245L160.552 90.4416Z" fill="white"/>
<path opacity="0.8" d="M162.503 91.5773L164.009 92.4537L165.095 91.8365L163.589 90.9725L162.515 91.5897L162.503 91.5773Z" fill="white"/>
<path opacity="0.8" d="M164.465 92.7006L165.971 93.5646L167.045 92.9474L165.539 92.0834L164.465 92.7006Z" fill="white"/>
<path opacity="0.8" d="M166.416 93.8361L167.922 94.7125L168.996 94.0953L167.49 93.2189L166.416 93.8361Z" fill="white"/>
<path opacity="0.8" d="M168.366 94.9595L169.884 95.8359L170.958 95.2187L169.44 94.3423L168.366 94.9595Z" fill="white"/>
<path opacity="0.8" d="M172.908 96.3419L171.403 95.4778L170.316 96.095L171.835 96.9714L172.908 96.3542V96.3419Z" fill="white"/>
<path opacity="0.8" d="M174.871 97.4652L173.365 96.5888L172.291 97.206L173.797 98.07L174.871 97.4529V97.4652Z" fill="white"/>
<path opacity="0.8" d="M153.739 87.0965L152.233 86.2202L151.159 86.8373L152.665 87.7137L153.739 87.0965Z" fill="white"/>
<path opacity="0.8" d="M155.689 88.2198L154.183 87.3558L153.109 87.973L154.615 88.8493L155.689 88.2322V88.2198Z" fill="white"/>
<path opacity="0.8" d="M155.06 89.1086L156.566 89.9726L157.639 89.3554L156.121 88.4914L155.047 89.1086H155.06Z" fill="white"/>
<path opacity="0.8" d="M157.01 90.2318L158.516 91.1082L159.59 90.491L158.084 89.6146L156.998 90.2318H157.01Z" fill="white"/>
<path opacity="0.8" d="M158.973 91.3552L160.478 92.2315L161.552 91.6144L160.046 90.738L158.973 91.3552Z" fill="white"/>
<path opacity="0.8" d="M160.923 92.4784L162.441 93.3548L163.515 92.7376L161.997 91.8735L160.923 92.4907V92.4784Z" fill="white"/>
<path opacity="0.8" d="M162.885 93.614L164.391 94.4781L165.478 93.8609L163.959 92.9845L162.885 93.6017V93.614Z" fill="white"/>
<path opacity="0.8" d="M164.836 94.7496L166.342 95.626L167.416 95.0088L165.91 94.1324L164.836 94.7496Z" fill="white"/>
<path opacity="0.8" d="M166.798 95.8728L168.304 96.7492L169.378 96.1321L167.872 95.268L166.798 95.8852V95.8728Z" fill="white"/>
<path opacity="0.8" d="M171.341 97.2553L169.823 96.3912L168.749 97.0084L170.267 97.8725L171.341 97.2553Z" fill="white"/>
<path opacity="0.8" d="M173.291 98.3786L171.785 97.5022L170.699 98.1194L172.217 98.9834L173.291 98.3663V98.3786Z" fill="white"/>
<path opacity="0.8" d="M152.245 87.9606L150.727 87.0842L149.653 87.7014L151.171 88.5655L152.245 87.9483V87.9606Z" fill="white"/>
<path opacity="0.8" d="M154.196 89.0839L152.677 88.2075L151.603 88.8247L153.122 89.7011L154.196 89.0839Z" fill="white"/>
<path opacity="0.8" d="M157.035 91.9599L157.417 92.1821L158.997 93.0832L159.38 93.3054L160.96 94.2188L161.343 94.441L162.922 95.3544L163.305 95.5766L164.885 96.49L165.268 96.7122L166.848 97.6133H166.86L167.934 97.0085L166.416 96.1321L166.033 95.9099L164.453 94.9965L164.07 94.7743L162.503 93.8732L162.12 93.651L160.54 92.7376L160.158 92.5154L158.578 91.602L158.195 91.3798L156.615 90.4664L154.665 89.3307L153.591 89.9479L155.479 91.0465L157.059 91.9599H157.035Z" fill="white"/>
<path opacity="0.8" d="M169.847 98.1194L168.329 97.243L167.255 97.8602L168.761 98.7366L169.847 98.1194Z" fill="white"/>
<path opacity="0.8" d="M171.797 99.2427L170.279 98.3787L169.205 98.9958L170.724 99.8722L171.797 99.2551V99.2427Z" fill="white"/>
<path fill-rule="evenodd" clip-rule="evenodd" d="M139.679 92.5771L166.144 107.673V87.3064L139.692 72.0374V92.5771H139.679Z" fill="#8495A3"/>
<path d="M166.292 86.3313C166.403 86.3313 166.416 86.3436 166.428 86.3436L141.494 71.8152C141.074 71.5684 140.531 71.5313 140.111 71.7659L139.704 72.0251L165.724 87.0472C165.749 86.6769 165.885 86.356 166.304 86.319L166.292 86.3313Z" fill="#D3D9DE"/>
<path d="M166.379 87.8866C166.305 87.8866 166.231 87.8619 166.156 87.8126V107.673L166.502 107.365C166.737 107.155 166.885 106.785 166.885 106.365V87.1337C166.885 87.5533 166.65 87.8866 166.379 87.8866Z" fill="#8395A4"/>
<path d="M166.835 86.4053L166.934 86.4668C166.934 86.4668 166.86 86.4299 166.835 86.4053Z" fill="white"/>
<path d="M166.811 86.7262C166.774 86.6275 166.7 86.5287 166.626 86.467L166.551 86.4053C166.477 86.3559 166.366 86.3189 166.268 86.3312C165.885 86.393 165.737 86.6645 165.712 87.0595L166.144 87.3064L166.798 86.7262H166.811Z" fill="#A9CAFA"/>
<path d="M166.885 87.1336V87.0966C166.885 86.9608 166.86 86.8374 166.823 86.7386L166.156 87.3188V87.8125C166.218 87.8619 166.292 87.8866 166.379 87.8866C166.663 87.8866 166.885 87.541 166.885 87.1213V87.1336Z" fill="#86B5F8"/>
<path opacity="0.41" fill-rule="evenodd" clip-rule="evenodd" d="M152.245 92.3796L149.406 91.3674L148.863 88.4173L151.147 86.467L153.986 87.4669L154.529 90.4293L152.245 92.3796Z" fill="#C1CAD1"/>
<path d="M172.427 78.1228L163.305 83.3318L166.305 85.2327L175.735 82.6159L172.427 78.1228Z" fill="#F2B588"/>
<path d="M190.646 72.5929L187.19 82.0728C187.19 82.0728 186.425 86.1462 188.017 86.2079C189.609 86.2696 191.486 86.1091 191.486 86.1091L196.448 73.173L190.646 72.5929Z" fill="#F2B588"/>
<path d="M191.844 84.8378C191.547 88.0347 187.733 88.294 187.733 88.294L180.327 90.1825L173.353 91.4909V88.2199L181.203 85.2451L184.647 83.4429L187.153 81.9864C187.153 81.9864 187.313 82.0481 188.338 83.1097C189.362 84.1712 189.523 83.8379 189.486 84.307L191.844 84.8501V84.8378Z" fill="#F2B588"/>
<path d="M181.376 46.6837C181.376 46.6837 179.241 50.0781 178.735 51.7075C178.29 53.1517 178.228 60.5702 178.228 60.5702C178.228 60.5702 179.957 60.2616 180.672 60.3604C182.401 60.6072 184.474 59.5457 184.474 59.5457L185.19 60.4221L185.684 56.7066L181.364 46.6837H181.376Z" fill="#BC7337"/>
<path d="M186.486 62.0638C185.487 62.4464 182.573 63.4833 182.302 61.928C181.833 59.2494 183.302 55.5217 182.425 55.4229C180.981 54.1639 183.388 53.0529 184.413 52.7073L185.289 52.4234C186.338 52.0037 189.918 50.0905 189.548 52.5222C189.387 52.0408 188.091 54.6082 188.659 56.9041C188.992 58.2373 189.856 58.8297 189.856 58.8297C190.202 59.8543 189.548 60.2986 188.449 61.101C188.042 61.3972 187.054 61.8539 186.499 62.0638H186.486Z" fill="#F2B588"/>
<path d="M183.66 40.2897C183.66 40.2897 180.438 42.1906 180.277 43.6718C180.117 45.153 180.043 45.9677 180.043 45.9677L180.117 47.523C180.117 47.523 179.487 49.0166 179.5 49.3252C179.537 50.5966 181.08 53.8676 181.08 53.8676C181.08 53.8676 181.438 55.497 182.24 55.6574C183.042 55.8179 186.338 55.0403 187.338 53.7812C188.288 52.5962 189.041 51.0656 189.276 51.0286C189.276 51.0286 191.93 43.067 190.029 41.5734C188.128 40.0798 187.363 39.8453 186.128 39.7836C185.301 39.7466 183.684 40.2773 183.684 40.2773L183.66 40.2897Z" fill="#FFD1A6"/>
<path d="M184.215 42.4251C182.722 42.4622 180.87 42.0054 180.092 44.4371C180.092 44.4371 179.648 41.1908 181.092 40.4502C183.042 39.438 184.61 38.4999 186.733 38.6603C190.584 38.9442 193.522 38.8208 195.324 43.4867C196.386 47.7699 195.522 49.93 194.571 54.0158C194.028 55.6328 196.571 62.8044 196.571 62.8044C193.88 59.6074 188.301 60.1752 188.35 58.0027C187.782 54.9292 187.128 54.2626 187.536 53.6084C188.214 52.5222 189.375 49.1277 189.375 49.1277L184.203 42.4251H184.215Z" fill="#BC7337"/>
<path d="M179.895 50.72C180.216 50.8064 180.463 50.3621 180.487 50.0288L180.24 47.6835C180.24 47.6218 180.166 47.5847 180.117 47.6465L178.611 49.7572C178.451 49.9794 178.772 50.4855 179.031 50.5472L179.882 50.72H179.895Z" fill="#FFD1A6"/>
<path d="M188.313 48.8314C188.313 49.6955 187.968 50.7447 188.437 50.8188C188.622 50.8434 189.375 51.1273 189.696 50.72C190.165 50.1152 190.473 48.671 190.547 48.1649C190.683 47.3132 190.375 46.9676 189.905 46.8935C189.609 46.8441 188.523 46.9922 188.239 47.6465C188.079 48.0414 188.313 48.4118 188.313 48.8438V48.8314Z" fill="#FFD1A6"/>
<path d="M166.959 87.4175L171.81 88.7259L178.414 86.7633L180.105 89.3061L177.13 90.1825L174.291 90.8367L172.254 93.1573L169.353 93.577L166.959 93.8115V87.4175Z" fill="#F2B588"/>
<path d="M172.291 78.1845L173.205 77.5673L177.278 78.9868C177.278 78.9868 177.081 81.1593 176.735 81.7641C176.537 82.1098 176.007 82.5171 175.735 82.6159C173.624 83.3565 172.958 83.3812 172.958 83.3812L172.304 78.1845H172.291Z" fill="#F2B588"/>
<path d="M195.559 62.2242C193.905 61.6688 192.819 62.6933 191.646 64.3473C190.473 66.0014 189.498 74.0124 189.498 74.0124L196.312 75.5553C196.583 74.6295 197.447 68.0627 197.682 66.2482C197.917 64.4337 196.534 62.5452 195.571 62.2242H195.559Z" fill="#267AF2"/>
<path opacity="0.74" d="M91.6402 60.5873L83.4315 65.2191L108.191 79.369L116.666 74.8706L91.6402 60.5873Z" fill="#D1BFF8"/>
<path d="M112.253 66.3103L89.1909 52.985L112.847 39.6596L135.909 52.985L112.253 66.3103Z" fill="#C3DAFB"/>
<path d="M136.054 65.595L112.398 78.9203L112.253 66.3104L135.909 52.985L136.054 65.595Z" fill="#4B91F5"/>
<path d="M112.398 78.9203L89.3364 65.595L89.1909 52.985L112.253 66.3104L112.398 78.9203Z" fill="#4B91F5"/>
<path d="M123.735 100.564C123.735 100.564 127.239 103.17 127.833 102.952C128.427 102.734 129.992 101.606 129.992 101.606C129.992 101.606 129.895 102.758 129.543 103.098C128.985 103.643 126.669 103.68 126.196 103.316C123.662 101.449 123.735 100.564 123.735 100.564Z" fill="#FFE08B"/>
<path d="M112.786 99.5208C112.786 99.5208 109.282 102.128 108.688 101.909C108.094 101.691 106.53 100.564 106.53 100.564C106.53 100.564 106.627 101.715 106.978 102.055C107.536 102.601 109.852 102.637 110.325 102.273C112.859 100.406 112.786 99.5208 112.786 99.5208Z" fill="#FFE08B"/>
<path d="M127.445 90.3907L124.996 91.2637L123.868 93.3734L123.747 94.4283C123.347 95.2043 122.971 96.4289 123.553 97.1928C124.317 98.4053 122.814 99.9694 124.475 101.352L125.493 102.225L127.276 102.867C128.985 103.037 130.016 102.601 130.089 100.709C130.161 99.448 130.198 97.4838 129.591 96.3319C129.482 96.0409 129.373 94.4647 129.337 94.1252L129.773 91.9427L127.445 90.3785V90.3907Z" fill="#A67265"/>
<path d="M106.724 97.1201C106.53 98.5266 105.778 101.946 107.912 102.079C108.251 102.055 108.918 102.14 109.234 101.982C109.925 101.667 111.707 101.097 112.168 100.467C112.907 99.8603 112.871 98.7569 112.459 97.9567C112.168 97.2292 112.895 96.6229 112.726 95.8712C112.823 95.8954 111.792 92.2458 111.78 92.1367L110.689 90.3907H108.688L106.906 92.1367C107.003 93.5917 106.99 95.6893 106.712 97.1201H106.724Z" fill="#A67265"/>
<path d="M125.263 90.4513L124.632 92.7551L125.154 93.9918C125.154 93.9918 126.063 94.3677 126.669 94.1616C127.276 93.9555 128.306 93.7736 128.306 93.7736L128.755 93.6645L129.397 90.9606L125.251 90.4392L125.263 90.4513Z" fill="#D89A6F"/>
<path d="M110.992 88.7295L111.622 91.0333L111.101 92.27C111.101 92.27 110.191 92.6459 109.585 92.4398C108.979 92.2337 107.948 92.0518 107.948 92.0518L107.5 91.9427L106.857 89.2388L111.004 88.7174L110.992 88.7295Z" fill="#D89A6F"/>
<path d="M134.563 74.1189C134.829 65.5223 135.242 61.5453 128.246 54.8402C118.133 52.1242 123.662 51.9423 112.41 52.9366C108.542 55.2282 104.493 54.234 103.886 59.4598C103.256 64.0916 101.292 70.1904 101.619 74.8343C102.25 80.0359 102.068 83.7583 104.966 88.4022C105.172 88.6932 105.596 91.3849 106.348 92.4519L107.597 92.1124C107.597 92.1124 109.343 91.2879 109.961 91.2879C110.579 91.2879 111.925 92.0276 111.925 92.0276C112.835 87.9536 112.01 89.7238 112.095 87.7474C112.35 87.1533 112.447 86.2197 112.398 85.5771C109.779 82.4367 111.258 84.4131 111.295 79.8056C110.943 77.3321 110.992 76.4227 111.659 74.0098C112.386 71.3908 112.216 69.1356 113.562 67.3168C114.265 66.3711 115.66 64.4796 115.733 64.2371C116.205 63.5581 117.879 62.6123 118.63 63.1458C119.625 63.8733 124.56 71.1968 125.057 72.3729C126.536 76.8107 123.808 77.0774 123.699 81.6971C123.674 82.8611 123.202 86.2439 123.432 88.0384C123.687 90.0754 124.329 91.9306 124.329 91.9306C124.329 91.9306 126.136 91.9305 129.482 93.6523C131.58 90.3179 131.762 89.7238 130.84 86.2318C130.804 84.7889 131.883 83.9402 132.21 82.6064C132.914 79.7207 134.551 74.1068 134.551 74.1068L134.563 74.1189Z" fill="#31527F"/>
<path d="M104.59 30.5417L105.487 38.2895C105.487 38.2895 106.154 43.5033 106.081 44.6309C106.008 45.7585 104.19 54.4885 104.432 56.5377L107.197 58.708C107.197 58.708 114.496 63.1821 119.188 62.5759C123.881 61.9697 124.475 62.2 127.239 60.2721C130.004 58.3443 129.919 57.0712 129.919 57.0712L128.427 54.6825L128.052 52.5243L128.124 45.2978C128.124 45.2978 129.979 32.13 127.457 28.7593C126.681 27.7287 121.831 26.795 121.831 26.795L119.782 34.7854L114.641 35.0885L112.798 31.0509L112.629 28.4683C112.629 28.4683 113.332 28.8078 112.41 27.28C112.168 26.8799 110.725 27.0982 109.658 27.4983C107.948 28.153 104.141 29.802 104.371 30.1779L104.59 30.5538V30.5417Z" fill="#C1CAD1"/>
<path opacity="0.16" d="M115.539 39.599L116.327 62.5759C117.539 62.7214 123.796 62.4425 125.372 61.5695C126.451 60.8663 128.949 58.7444 128.949 58.7444C129.313 58.4413 129.749 57.5804 129.919 57.1439L128.355 54.7189C127.785 53.2882 128.124 46.2435 128.136 44.6309C128.888 42.4848 128.9 32.0694 128.997 29.6565L126.354 27.9833C125.493 27.7408 122.195 26.5768 121.322 26.8314L121.589 32.5665L115.551 39.6112L115.539 39.599Z" fill="#8395A4"/>
<path d="M128.985 39.6718L132.865 45.4069L135.702 48.9353L140.31 45.225L138.03 42.0604L131.98 33.7063L128.985 39.6718Z" fill="#D89A6F"/>
<path d="M135.484 47.9289L135.072 52.7304C135.072 52.8516 135.023 52.9729 134.963 53.082L132.235 58.0411C132.113 58.2715 131.701 58.8293 131.447 58.8778C131.447 58.8778 128.925 59.6416 128.803 58.9869C128.779 58.8656 126.657 59.5083 126.645 59.5083C125.081 59.6901 124.062 60.5874 126.572 60.6965C126.609 60.6965 127.36 60.7329 127.36 60.7329C127.773 60.8784 128.185 61.0481 128.1 61.4725L127.7 63.4731C127.627 63.8369 127.785 64.2006 128.1 64.3946L129.907 65.498C130.064 65.595 130.234 65.6314 130.416 65.6193L133.641 65.4495C134.017 65.4253 134.344 65.1706 134.441 64.8069L135.569 60.6601C135.593 60.5631 135.642 60.4661 135.702 60.3813L139.619 54.828C139.619 54.828 139.643 54.8038 139.643 54.7916L142.311 50.5115C142.383 50.4024 142.42 50.269 142.444 50.1356L142.614 48.5715C142.638 48.3411 142.577 48.1229 142.432 47.941L139.546 44.2065C139.194 43.7458 138.503 43.7458 138.152 44.2065L135.654 47.456C135.557 47.5894 135.484 47.747 135.472 47.9168L135.484 47.9289Z" fill="#D89A6F"/>
<path fill-rule="evenodd" clip-rule="evenodd" d="M105.232 64.2492L127.821 52.7426L141.995 61.9454L119.406 73.452L105.232 64.237V64.2492Z" fill="#C3DAFD"/>
<path d="M119.406 73.452L105.244 64.2491L105.196 65.1343C105.196 65.2798 105.257 65.4131 105.378 65.498L119.055 74.3856C119.055 74.3856 119.128 74.4341 119.152 74.4463C119.212 74.4705 119.285 74.4948 119.358 74.4948L119.406 73.4641H119.394L119.406 73.452Z" fill="#86B5F8"/>
<path opacity="0.95" d="M119.431 73.452H119.406L119.358 74.4948C119.443 74.4948 119.516 74.4827 119.588 74.4463L119.661 74.4099L141.813 63.1215C141.898 63.0852 141.947 63.0003 141.947 62.9033L141.995 61.9333L119.419 73.4278L119.431 73.452Z" fill="#639FF6"/>
<path opacity="0.55" fill-rule="evenodd" clip-rule="evenodd" d="M108.979 64.4796L128.415 54.5856L135.278 59.0476L115.842 68.9416L108.979 64.4796Z" fill="#EEF5FE"/>
<path opacity="0.66" fill-rule="evenodd" clip-rule="evenodd" d="M123.65 65.6799L129.434 62.7335L133.011 65.11L127.227 68.0564L123.65 65.6799Z" fill="#E5EFFE"/>
<path fill-rule="evenodd" clip-rule="evenodd" d="M127.227 67.9473L123.856 65.692L129.41 62.7214L123.65 65.6799L127.227 68.0685L133.011 65.11L127.239 67.9473H127.227Z" fill="#88B6F8"/>
<path opacity="0.34" d="M128.173 56.6831L128.112 56.7074L129.034 57.3015L130.38 56.6225L130.331 56.5861L129.046 57.2409L128.173 56.6831Z" fill="#3C7DE9"/>
<path opacity="0.34" d="M127.033 55.9314L126.972 55.9556L127.894 56.5498L129.24 55.8586L129.191 55.8223L127.906 56.477L127.045 55.9193L127.033 55.9314Z" fill="#3C7DE9"/>
<path opacity="0.34" d="M129.373 57.4592L129.313 57.4834L130.234 58.0775L131.58 57.3864L131.519 57.35L130.234 58.0048L129.373 57.447V57.4592Z" fill="#3C7DE9"/>
<path opacity="0.34" d="M130.646 58.2836L130.586 58.3079L131.507 58.902L132.853 58.2109L132.805 58.1745L131.519 58.8293L130.658 58.2715L130.646 58.2836Z" fill="#3C7DE9"/>
<path opacity="0.34" d="M131.847 59.0718L131.786 59.096L132.708 59.6901L134.053 58.999L134.005 58.9626L132.72 59.6174L131.859 59.0596L131.847 59.0718Z" fill="#3C7DE9"/>
<path opacity="0.34" d="M126.512 57.5441L126.451 57.5683L127.373 58.1624L128.718 57.4713L128.67 57.4349L127.385 58.0897L126.524 57.5319L126.512 57.5441Z" fill="#3C7DE9"/>
<path opacity="0.34" d="M125.699 58.9506L124.826 58.3928L124.766 58.4171L125.687 59.0112L127.033 58.3201L126.985 58.2837L125.699 58.9384V58.9506Z" fill="#3C7DE9"/>
<path opacity="0.34" d="M124.026 59.7993L123.165 59.2416L123.105 59.2658L124.026 59.86L125.372 59.1688L125.323 59.1324L124.038 59.7872L124.026 59.7993Z" fill="#3C7DE9"/>
<path opacity="0.34" d="M122.365 60.6481L121.504 60.0903L121.443 60.1267L122.365 60.7208L123.711 60.0418L123.662 60.0054L122.377 60.6602L122.365 60.6481Z" fill="#3C7DE9"/>
<path opacity="0.34" d="M120.692 61.4968L119.831 60.939L119.77 60.9633L120.692 61.5574L122.038 60.8663L121.989 60.8299L120.704 61.4846L120.692 61.4968Z" fill="#3C7DE9"/>
<path opacity="0.34" d="M119.018 62.3577L118.158 61.7999L118.109 61.8242L119.018 62.4183L120.364 61.7272L120.316 61.6908L119.018 62.3455V62.3577Z" fill="#3C7DE9"/>
<path opacity="0.34" d="M117.357 63.1943L116.484 62.6365L116.424 62.6608L117.345 63.2549L118.691 62.5638L118.643 62.5274L117.357 63.1822V63.1943Z" fill="#3C7DE9"/>
<path opacity="0.34" d="M115.684 64.0552L114.823 63.4974L114.763 63.5338L115.684 64.1279L117.03 63.4489L116.981 63.4125L115.696 64.0673L115.684 64.0552Z" fill="#3C7DE9"/>
<path opacity="0.34" d="M113.15 64.334L113.089 64.3582L114.011 64.9524L115.357 64.2612L115.308 64.2249L114.023 64.8796L113.15 64.3219V64.334Z" fill="#3C7DE9"/>
<path opacity="0.34" d="M111.477 65.1949L111.428 65.2191L112.338 65.8133L113.683 65.1221L113.635 65.0858L112.338 65.7405L111.477 65.1828V65.1949Z" fill="#3C7DE9"/>
<path opacity="0.34" d="M125.348 56.7923L125.287 56.8166L126.209 57.4107L127.554 56.7317L127.506 56.6953L126.221 57.3622L125.348 56.8044V56.7923Z" fill="#3C7DE9"/>
<path opacity="0.34" d="M124.547 58.1988L123.687 57.6411L123.626 57.6653L124.547 58.2594L125.893 57.5683L125.845 57.5319L124.56 58.1867L124.547 58.1988Z" fill="#3C7DE9"/>
<path opacity="0.34" d="M122.886 59.0596L122.025 58.5019L121.965 58.5261L122.886 59.1203L124.232 58.4291L124.184 58.3928L122.898 59.0596H122.886Z" fill="#3C7DE9"/>
<path opacity="0.34" d="M121.213 59.8962L120.352 59.3385L120.292 59.3627L121.213 59.9569L122.559 59.2657L122.51 59.2294L121.225 59.8841L121.213 59.8962Z" fill="#3C7DE9"/>
<path opacity="0.34" d="M119.54 60.745L118.679 60.1873L118.618 60.2237L119.528 60.8178L120.874 60.1388L120.825 60.1024L119.54 60.7572V60.745Z" fill="#3C7DE9"/>
<path opacity="0.34" d="M117.867 61.6059L117.006 61.0481L116.945 61.0724L117.867 61.6665L119.212 60.9754L119.164 60.939L117.879 61.5938L117.867 61.6059Z" fill="#3C7DE9"/>
<path opacity="0.34" d="M116.205 62.4546L115.345 61.8969L115.284 61.9332L116.205 62.5274L117.551 61.8362L117.503 61.7999L116.218 62.4546H116.205Z" fill="#3C7DE9"/>
<path opacity="0.34" d="M114.532 63.3034L113.659 62.7457L113.599 62.7699L114.52 63.364L115.866 62.6729L115.817 62.6365L114.532 63.2913V63.3034Z" fill="#3C7DE9"/>
<path opacity="0.34" d="M111.998 63.5823L111.937 63.6187L112.847 64.2128L114.193 63.5217L114.144 63.4853L112.859 64.14L111.998 63.5823Z" fill="#3C7DE9"/>
<path opacity="0.34" d="M110.264 64.4674L111.186 65.0615L112.532 64.3704L112.483 64.334L111.198 64.9888L110.337 64.431L110.276 64.4553L110.264 64.4674Z" fill="#3C7DE9"/>
<path opacity="0.34" d="M127.7 58.3079L127.651 58.3322L128.561 58.9263L129.907 58.2352L129.858 58.1988L128.561 58.8535L127.7 58.2958V58.3079Z" fill="#3C7DE9"/>
<path opacity="0.34" d="M126.9 59.7266L126.039 59.1688L125.978 59.2052L126.9 59.7993L128.246 59.1203L128.197 59.0839L126.912 59.7387L126.9 59.7266Z" fill="#3C7DE9"/>
<path opacity="0.34" d="M125.226 60.5753L124.366 60.0175L124.305 60.0418L125.226 60.6359L126.572 59.9448L126.524 59.9084L125.239 60.5631L125.226 60.5753Z" fill="#3C7DE9"/>
<path opacity="0.34" d="M123.565 61.4362L122.704 60.8784L122.644 60.9027L123.565 61.4968L124.911 60.8057L124.863 60.7693L123.577 61.4362H123.565Z" fill="#3C7DE9"/>
<path opacity="0.34" d="M121.892 62.2728L121.019 61.715L120.958 61.7393L121.88 62.3334L123.226 61.6423L123.177 61.6059L121.892 62.2606V62.2728Z" fill="#3C7DE9"/>
<path opacity="0.34" d="M120.219 63.1215L119.358 62.5638L119.297 62.6002L120.219 63.1943L121.565 62.5032L121.516 62.4668L120.231 63.1215H120.219Z" fill="#3C7DE9"/>
<path opacity="0.34" d="M118.558 63.9824L117.697 63.4246L117.636 63.4489L118.558 64.043L119.904 63.3519L119.843 63.3155L118.558 63.9702V63.9824Z" fill="#3C7DE9"/>
<path opacity="0.34" d="M116.884 64.8311L116.024 64.2734L115.963 64.3098L116.884 64.9039L118.23 64.2128L118.182 64.1764L116.897 64.8311H116.884Z" fill="#3C7DE9"/>
<path opacity="0.34" d="M114.35 65.1221L114.29 65.1464L115.211 65.7405L116.557 65.0615L116.509 65.0251L115.223 65.6799L114.362 65.1221H114.35Z" fill="#3C7DE9"/>
<path opacity="0.34" d="M112.677 65.971L112.616 66.0073L113.538 66.6015L114.884 65.9103L114.835 65.874L113.55 66.5287L112.689 65.971H112.677Z" fill="#3C7DE9"/>
<path opacity="0.34" d="M128.973 59.1324L128.912 59.1567L129.834 59.7508L131.18 59.0597L131.119 59.0233L129.834 59.6781L128.973 59.1203V59.1324Z" fill="#3C7DE9"/>
<path opacity="0.34" d="M128.173 60.5511L127.312 59.9933L127.251 60.0297L128.173 60.6238L129.519 59.9327L129.47 59.8963L128.185 60.5511H128.173Z" fill="#3C7DE9"/>
<path opacity="0.34" d="M126.5 61.3997L125.639 60.842L125.59 60.8662L126.5 61.4604L127.845 60.7692L127.797 60.7328L126.5 61.3876V61.3997Z" fill="#3C7DE9"/>
<path opacity="0.34" d="M124.826 62.2485L123.965 61.6908L123.905 61.715L124.826 62.3092L126.172 61.618L126.124 61.5817L124.838 62.2364L124.826 62.2485Z" fill="#3C7DE9"/>
<path opacity="0.34" d="M123.165 63.0973L122.304 62.5396L122.244 62.5638L123.165 63.1579L124.511 62.4789L124.463 62.4426L123.177 63.0973H123.165Z" fill="#3C7DE9"/>
<path opacity="0.34" d="M121.492 63.9582L120.619 63.4005L120.558 63.4247L121.48 64.0188L122.826 63.3277L122.777 63.2913L121.492 63.9461V63.9582Z" fill="#3C7DE9"/>
<path opacity="0.34" d="M119.819 64.8069L118.958 64.2492L118.909 64.2735L119.819 64.8676L121.165 64.1764L121.116 64.1401L119.819 64.7948V64.8069Z" fill="#3C7DE9"/>
<path opacity="0.34" d="M118.145 65.6556L117.285 65.0979L117.224 65.1221L118.145 65.7163L119.491 65.0251L119.431 64.9888L118.145 65.6556Z" fill="#3C7DE9"/>
<path opacity="0.34" d="M115.611 65.9345L115.551 65.9709L116.472 66.565L117.818 65.886L117.77 65.8497L116.484 66.5044L115.623 65.9467L115.611 65.9345Z" fill="#3C7DE9"/>
<path opacity="0.34" d="M113.95 66.7954L113.89 66.8197L114.811 67.4138L116.157 66.7227L116.108 66.6863L114.823 67.341L113.962 66.7833L113.95 66.7954Z" fill="#3C7DE9"/>
<path opacity="0.34" d="M130.173 59.9206L130.113 59.9448L131.034 60.539L132.38 59.8478L132.332 59.8115L131.046 60.4662L130.186 59.9085L130.173 59.9206Z" fill="#3C7DE9"/>
<path opacity="0.34" d="M118.424 65.8981L119.346 66.5044L120.692 65.8132L121.019 65.6435L122.365 64.9645L122.692 64.7947L124.038 64.1036L124.366 63.946L125.711 63.2549L126.039 63.0972L127.385 62.4061L127.712 62.2364L129.058 61.5574L130.731 60.7086L130.683 60.6722L129.07 61.4967L127.724 62.1879L127.397 62.3576L126.051 63.0366L125.724 63.2064L124.378 63.8975L124.05 64.0551L122.704 64.7462L122.377 64.916L121.031 65.6071L120.704 65.7769L119.358 66.4559L118.497 65.8981L118.449 65.9224L118.424 65.8981Z" fill="#3C7DE9"/>
<path opacity="0.34" d="M116.812 66.7226L116.751 66.7469L117.673 67.341L119.018 66.6499L118.97 66.6135L117.685 67.2683L116.812 66.7105V66.7226Z" fill="#3C7DE9"/>
<path opacity="0.34" d="M115.151 67.5714L115.09 67.5957L116.011 68.1898L117.357 67.5108L117.309 67.4744L116.024 68.1292L115.163 67.5714H115.151Z" fill="#3C7DE9"/>
<path opacity="0.8" d="M128.985 57.2409L130.27 56.5862L129.41 56.0284L128.124 56.6832L128.997 57.2409H128.985Z" fill="white"/>
<path opacity="0.8" d="M127.312 58.0896L128.597 57.4349L127.736 56.8771L126.439 57.5319L127.3 58.0896H127.312Z" fill="white"/>
<path opacity="0.8" d="M126.063 57.7259L124.778 58.3806L125.651 58.9384L126.936 58.2836L126.075 57.7259H126.063Z" fill="white"/>
<path opacity="0.8" d="M124.402 58.5746L123.117 59.2294L123.978 59.7871L125.263 59.1324L124.402 58.5746Z" fill="white"/>
<path opacity="0.8" d="M122.729 59.4234L121.443 60.0782L122.304 60.6359L123.59 59.9811L122.717 59.4234H122.729Z" fill="white"/>
<path opacity="0.8" d="M121.055 60.2722L119.758 60.927L120.619 61.4847L121.904 60.83L121.043 60.2722H121.055Z" fill="white"/>
<path opacity="0.8" d="M119.382 61.133L118.097 61.7877L118.958 62.3455L120.243 61.6907L119.37 61.133H119.382Z" fill="white"/>
<path opacity="0.8" d="M117.721 61.9818L116.436 62.6366L117.309 63.1943L118.594 62.5396L117.733 61.9818H117.721Z" fill="white"/>
<path opacity="0.8" d="M116.048 62.8306L114.763 63.4853L115.623 64.0431L116.909 63.3883L116.048 62.8306Z" fill="white"/>
<path opacity="0.8" d="M113.962 64.8918L115.248 64.2371L114.387 63.6793L113.089 64.3341L113.962 64.8918Z" fill="white"/>
<path opacity="0.8" d="M112.289 65.7526L113.574 65.0858L112.713 64.528L111.428 65.1828L112.289 65.7405V65.7526Z" fill="white"/>
<path opacity="0.8" d="M127.894 56.5013L129.179 55.8465L128.318 55.2888L127.033 55.9435L127.894 56.5013Z" fill="white"/>
<path opacity="0.8" d="M126.172 57.35L127.457 56.6831L126.597 56.1254L125.311 56.7801L126.184 57.3379L126.172 57.35Z" fill="white"/>
<path opacity="0.8" d="M124.923 56.9742L123.638 57.6289L124.499 58.1867L125.784 57.5319L124.923 56.9742Z" fill="white"/>
<path opacity="0.8" d="M123.25 57.8351L121.965 58.4898L122.826 59.0476L124.111 58.3807L123.25 57.8229V57.8351Z" fill="white"/>
<path opacity="0.8" d="M121.577 58.6838L120.292 59.3386L121.152 59.8963L122.45 59.2416L121.589 58.6838H121.577Z" fill="white"/>
<path opacity="0.8" d="M119.904 59.5325L118.618 60.1873L119.479 60.745L120.764 60.0903L119.891 59.5325H119.904Z" fill="white"/>
<path opacity="0.8" d="M118.242 60.3813L116.957 61.036L117.818 61.5938L119.103 60.939L118.242 60.3813Z" fill="white"/>
<path opacity="0.8" d="M116.569 61.23L115.284 61.8848L116.145 62.4425L117.442 61.7878L116.581 61.23H116.569Z" fill="white"/>
<path opacity="0.8" d="M114.896 62.0788L113.611 62.7335L114.484 63.2913L115.769 62.6365L114.908 62.0788H114.896Z" fill="white"/>
<path opacity="0.8" d="M112.81 64.1521L114.096 63.4974L113.235 62.9396L111.95 63.5944L112.81 64.1521Z" fill="white"/>
<path opacity="0.8" d="M111.137 65.0009L112.422 64.3461L111.562 63.7884L110.276 64.4431L111.137 65.0009Z" fill="white"/>
<path opacity="0.8" d="M130.186 58.029L131.471 57.3743L130.61 56.8165L129.325 57.4713L130.186 58.029Z" fill="white"/>
<path opacity="0.8" d="M128.512 58.8778L129.798 58.223L128.937 57.6653L127.651 58.32L128.512 58.8778Z" fill="white"/>
<path opacity="0.8" d="M127.263 58.5019L125.978 59.1566L126.839 59.7144L128.124 59.0596L127.251 58.5019H127.263Z" fill="white"/>
<path opacity="0.8" d="M125.602 59.3507L124.305 60.0055L125.166 60.5632L126.451 59.9085L125.59 59.3507H125.602Z" fill="white"/>
<path opacity="0.8" d="M123.929 60.2115L122.632 60.8662L123.493 61.424L124.79 60.7692L123.929 60.2115Z" fill="white"/>
<path opacity="0.8" d="M122.256 61.0603L120.971 61.7151L121.844 62.2728L123.129 61.6181L122.268 61.0603H122.256Z" fill="white"/>
<path opacity="0.8" d="M120.583 61.9091L119.297 62.5638L120.158 63.1216L121.443 62.4668L120.583 61.9091Z" fill="white"/>
<path opacity="0.8" d="M118.921 62.7578L117.636 63.4126L118.497 63.9703L119.782 63.3156L118.921 62.7578Z" fill="white"/>
<path opacity="0.8" d="M117.248 63.6066L115.951 64.2613L116.812 64.8191L118.109 64.1643L117.248 63.6066Z" fill="white"/>
<path opacity="0.8" d="M115.151 65.6799L116.448 65.0252L115.575 64.4674L114.29 65.1222L115.151 65.6799Z" fill="white"/>
<path opacity="0.8" d="M113.489 66.5287L114.775 65.8739L113.914 65.3162L112.629 65.9709L113.489 66.5287Z" fill="white"/>
<path opacity="0.8" d="M131.459 58.8535L132.744 58.1987L131.883 57.641L130.598 58.2957L131.459 58.8535Z" fill="white"/>
<path opacity="0.8" d="M129.785 59.7023L131.071 59.0476L130.21 58.4898L128.925 59.1446L129.785 59.7023Z" fill="white"/>
<path opacity="0.8" d="M128.537 59.3264L127.251 59.9812L128.112 60.5389L129.397 59.8842L128.537 59.3264Z" fill="white"/>
<path opacity="0.8" d="M126.863 60.1752L125.578 60.8299L126.439 61.3877L127.724 60.7329L126.851 60.1752H126.863Z" fill="white"/>
<path opacity="0.8" d="M125.19 61.0239L123.905 61.6787L124.766 62.2364L126.051 61.5817L125.19 61.0239Z" fill="white"/>
<path opacity="0.8" d="M123.529 61.8848L122.244 62.5395L123.105 63.0973L124.402 62.4425L123.541 61.8848H123.529Z" fill="white"/>
<path opacity="0.8" d="M121.856 62.7335L120.558 63.3883L121.431 63.946L122.717 63.2913L121.856 62.7335Z" fill="white"/>
<path opacity="0.8" d="M120.182 63.5823L118.897 64.237L119.758 64.7948L121.043 64.14L120.182 63.5823Z" fill="white"/>
<path opacity="0.8" d="M118.509 64.4311L117.224 65.0858L118.085 65.6436L119.37 64.9767L118.509 64.4189V64.4311Z" fill="white"/>
<path opacity="0.8" d="M116.424 66.5044L117.709 65.8496L116.848 65.2919L115.563 65.9466L116.424 66.5044Z" fill="white"/>
<path opacity="0.8" d="M114.75 67.3531L116.036 66.6984L115.163 66.1406L113.877 66.7954L114.738 67.3531H114.75Z" fill="white"/>
<path opacity="0.8" d="M132.647 59.6296L133.932 58.9748L133.071 58.4171L131.774 59.0718L132.635 59.6296H132.647Z" fill="white"/>
<path opacity="0.8" d="M130.986 60.4783L132.283 59.8236L131.422 59.2658L130.125 59.9206L130.986 60.4783Z" fill="white"/>
<path opacity="0.8" d="M128.985 61.4968L130.598 60.6723L129.737 60.1146L128.064 60.9633L126.718 61.6544L126.39 61.8242L125.045 62.5153L124.717 62.6729L123.371 63.3641L123.044 63.5338L121.698 64.2128L121.371 64.3826L120.025 65.0737L119.697 65.2313L118.4 65.8982L119.261 66.4559L120.607 65.7769L120.934 65.6072L122.28 64.9161L122.607 64.7463L123.953 64.0552L124.281 63.8976L125.627 63.2064L125.954 63.0367L127.3 62.3577L127.627 62.1879L128.973 61.4968H128.985Z" fill="white"/>
<path opacity="0.8" d="M117.624 67.2804L118.909 66.6257L118.048 66.0679L116.751 66.7227L117.624 67.2804Z" fill="white"/>
<path opacity="0.8" d="M115.951 68.1292L117.248 67.4744L116.387 66.9167L115.102 67.5714L115.963 68.1292H115.951Z" fill="white"/>
<path fill-rule="evenodd" clip-rule="evenodd" d="M142.88 46.4133L120.292 57.9199L119.406 74.7979L142.007 63.4368L142.893 46.4133H142.88Z" fill="#4B91F5"/>
<path d="M120.207 57.1076C120.546 57.1561 120.655 57.4228 120.655 57.7259L142.88 46.4012L142.553 46.1708C142.214 45.9526 141.765 45.9647 141.401 46.1466L120.098 57.0954C120.098 57.0954 120.11 57.0833 120.207 57.0954V57.1076Z" fill="#A9CAFA"/>
<path d="M120.085 58.3928C119.855 58.3807 119.685 58.0897 119.697 57.738L118.861 73.6824C118.849 74.0219 118.946 74.3493 119.128 74.5312L119.406 74.7979L120.267 58.3322C120.207 58.3685 120.146 58.3928 120.073 58.3928H120.085Z" fill="#86B5F8"/>
<path d="M119.673 57.1924L119.758 57.1439C119.758 57.1439 119.697 57.1682 119.673 57.1924Z" fill="white"/>
<path d="M119.77 57.4106L120.292 57.9199L120.655 57.738C120.655 57.3985 120.534 57.1803 120.231 57.1075C120.158 57.0954 120.061 57.1075 120.001 57.156L119.928 57.2045C119.928 57.2045 119.807 57.3379 119.77 57.4106Z" fill="#A9CAFA"/>
<path d="M119.685 57.738C119.673 58.0896 119.843 58.3806 120.073 58.3928C120.146 58.3928 120.207 58.3806 120.267 58.3321L120.292 57.9199L119.77 57.4106C119.734 57.4955 119.71 57.5925 119.697 57.7016V57.738H119.685Z" fill="#86B5F8"/>
<path opacity="0.41" fill-rule="evenodd" clip-rule="evenodd" d="M129.846 61.2058L131.786 62.77L134.114 61.8727L134.502 59.4113L132.562 57.8351L130.234 58.7323L129.846 61.2058Z" fill="#C2D9FF"/>
<path d="M100.94 37.356L98.6482 51.7726L101.995 51.9544L104.335 50.4994L107.718 43.1032L100.94 37.356Z" fill="#D89A6F"/>
<path d="M103.923 50.1478L105.705 52.391C105.705 52.391 105.754 52.4516 105.778 52.4758L110.094 56.5498C110.216 56.6711 110.385 56.7438 110.555 56.756L114.69 57.1682C114.811 57.1682 114.92 57.2167 115.017 57.2773L119.382 59.9085C119.843 60.1873 119.891 60.8421 119.479 61.1937L116.69 63.5217C116.569 63.6187 116.424 63.6915 116.266 63.7036L114.375 63.8855C114.205 63.8976 114.023 63.8612 113.877 63.7642L110.967 62.6608L109.209 61.4726C109.137 61.4362 102.698 56.9378 102.65 56.8772L98.6484 52.0636C98.3453 51.7241 99.2668 51.1542 99.6184 50.8753L102.783 50.0145C103.123 49.7477 103.62 49.8083 103.886 50.1478H103.923Z" fill="#D89A6F"/>
<path d="M105.099 29.3898C108.057 29.887 108.943 35.0522 109.124 40.1205C109.149 40.9207 108.579 42.5455 108.579 42.5455L106.53 47.7834C106.239 46.9832 102.153 44.0975 99.1092 43.9883C99.9822 38.1198 100.782 33.5487 105.099 29.3898Z" fill="#8395A4"/>
<path d="M127.045 28.4805C131.107 30.3598 136.151 39.5991 139 43.0305C137.946 43.7822 133.762 46.5467 132.562 47.638C131.835 47.3227 128.427 41.9028 128.427 41.9028C128.561 40.4478 129.349 29.79 127.045 28.4805Z" fill="#8395A4"/>
<path d="M122.983 28.541C122.947 28.6259 122.898 28.7229 122.85 28.7957C121.007 29.9475 118.837 30.6023 116.521 30.6023C114.059 30.6023 112.641 29.8748 110.725 28.6017C113.368 27.959 112.823 26.0797 113.38 25.3037C113.72 24.8429 113.114 24.1275 113.017 23.4485C112.956 22.9635 112.871 22.4543 112.823 21.9329L113.453 21.8359L114.059 21.751L116.957 21.3145L119.819 20.8781C119.831 21.0236 119.843 21.169 119.867 21.3388C119.903 21.848 119.928 22.4785 119.952 23.1454C119.964 23.5819 119.988 24.0305 120 24.467C120.013 25.0975 120.037 25.6917 120.049 26.1888C120.049 26.6495 120.279 27.086 120.655 27.3649C121.395 27.8984 122.595 28.4562 122.971 28.5532L122.983 28.541Z" fill="#B76C39"/>
<path d="M112.58 27.4256L113.768 31.4996L113.671 32.2998C113.671 32.4453 113.708 32.5908 113.793 32.7L115.272 34.6885C115.405 34.8582 115.611 34.9552 115.817 34.9188L118.885 34.5187C119.018 34.5066 119.14 34.4459 119.237 34.3489L120.667 32.9061C120.813 32.7606 120.874 32.5423 120.825 32.3362L119.904 28.3471L120.401 28.1288C120.328 27.85 119.94 29.6687 119.649 29.6929L114.362 30.0567C114.071 30.081 112.604 27.1225 112.58 27.4135V27.4256Z" fill="#B76C39"/>
<path d="M112.616 27.2437C112.616 27.2437 112.774 27.656 112.992 28.5047C113.235 29.4262 113.611 30.5902 113.611 30.5902C113.611 30.5902 113.974 31.6572 114.132 32.0088C114.35 32.4817 115.114 33.8397 115.114 33.8397C115.114 33.8397 114.144 33.0031 113.793 32.5545C113.441 32.1058 112.932 31.2328 112.859 30.7236C112.786 30.2143 112.616 27.2437 112.616 27.2437Z" fill="#456077"/>
<path d="M114.811 33.379L113.417 34.2156L116.193 36.3738L116.727 37.9865L116.957 36.5315L114.811 33.379Z" fill="#8395A4"/>
<path d="M113.223 25.5705L111.307 26.9285C111.307 26.9285 109.888 30.2265 109.961 31.4511C110.034 32.6757 109.961 35.125 109.961 35.125L113.708 34.2035L114.86 33.3669C114.86 33.3669 113.029 31.536 112.871 30.4569C112.713 29.3777 113.223 25.5705 113.223 25.5705Z" fill="#8395A4"/>
<path d="M112.98 28.3956C113.902 29.2929 115.466 31.3662 116.69 31.2935C117.442 31.245 121.14 29.0867 121.14 29.0867L117.103 37.453L114.071 31.9361L112.968 28.3835L112.98 28.3956Z" fill="#E63817"/>
<path d="M120.546 32.3726L115.648 38.9444L119.746 35.9737L121.613 34.0337L120.34 33.961L120.546 32.3726Z" fill="#8395A4"/>
<path d="M120.037 29.1716L120.34 33.961L124.814 34.7006L124.22 31.051L122.438 26.8436L120.037 25.7402V29.1716Z" fill="#8395A4"/>
<path d="M120.789 33.5487L115.684 38.8837L119.637 32.2999L120.037 29.2686L120.001 25.9221L120.789 33.5487Z" fill="#456077"/>
<path d="M121.177 16.0644L120.91 17.4224L120.74 19.2654C120.74 19.2654 120.861 19.3988 121.092 19.2412C121.322 19.0835 121.54 18.8532 121.54 18.4773C121.54 18.1014 121.54 17.5679 121.71 17.3254C121.88 17.0829 121.904 16.8404 121.904 16.5615C121.904 16.2827 121.904 15.9553 121.747 15.8219C121.589 15.6885 121.274 15.7977 121.274 15.7977L121.177 16.028V16.0644Z" fill="#CC7D37"/>
<path d="M111.101 15.7128C111.101 15.7128 110.786 15.6764 110.737 15.8098C110.689 15.9432 110.47 16.2948 110.507 16.5252C110.543 16.7555 110.798 17.095 110.798 17.3375C110.798 17.58 110.931 18.3924 110.931 18.3924C110.931 18.3924 110.967 18.841 111.125 19.035C111.283 19.229 111.707 19.2533 111.707 19.2533L111.671 17.677L111.44 16.2584L111.113 15.7128H111.101Z" fill="#CC7D37"/>
<path d="M121.164 16.1857C121.164 16.1857 121.164 16.0887 121.164 16.0402C121.177 15.6037 121.152 15.1187 120.995 14.5246C120.485 12.0996 118.812 10.5112 116.412 10.5718C115.975 10.5718 114.787 10.7658 114.411 10.9356C113.55 11.3357 113.017 11.9056 112.701 12.5118C112.459 12.8998 112.386 13.1059 112.168 13.5546C111.634 14.6579 111.816 18.7077 111.853 19.4837C111.889 20.2597 112.047 22.3209 112.435 22.8181C112.823 23.3152 114.775 25.0612 115.393 25.2552C116.011 25.4492 116.763 25.4977 117.188 25.4007C117.648 25.2794 117.964 24.9884 118.703 24.4064C119.443 23.8244 120.11 23.0121 120.376 22.5149C120.643 22.0057 120.764 20.3082 120.801 19.9202C120.837 19.5322 121.055 18.6228 121.055 17.5073C121.055 17.4831 121.055 17.4588 121.055 17.4346C121.116 17.0344 121.152 16.6101 121.152 16.1857H121.164Z" fill="#CC7D37"/>
<path d="M115.902 20.8781C115.769 20.8781 115.733 20.7204 115.72 20.6234V20.5022L115.83 20.4658C115.902 20.4537 115.951 20.4779 115.987 20.5628H116.897C116.945 20.4658 117.03 20.4779 117.054 20.4779C117.139 20.5022 117.175 20.5749 117.163 20.6962C117.151 20.8417 117.066 20.8538 117.018 20.8538C116.994 20.8538 116.957 20.8538 116.933 20.8174H116.011C116.011 20.8174 115.939 20.8659 115.914 20.8659L115.902 20.8781Z" fill="#B76C39"/>
<path d="M111.695 19.2654C111.695 19.2654 112.156 20.9629 112.738 21.363C113.077 21.6055 114.059 22.1997 114.678 22.3694C116.339 22.8423 117.83 22.43 119.479 21.6904C120.182 21.3752 120.971 18.8653 120.971 18.8653C120.971 18.8653 120.667 24.0305 119.613 25.1218C119.103 25.6432 118.279 26.5889 117.563 26.7344C117.006 26.8435 114.908 26.6738 114.423 26.3707C113.805 25.9705 112.798 25.0612 112.556 24.37C112.168 23.2788 111.695 19.2533 111.695 19.2533V19.2654Z" fill="#282815"/>
<path d="M118.849 22.3209C118.752 21.7268 117.818 21.266 116.775 21.2903L115.381 21.3267C114.338 21.3509 113.574 21.8723 113.671 22.4664V22.818C113.756 23.4122 114.75 23.8123 115.793 23.788L117.188 23.7517C118.23 23.7274 118.994 23.206 118.897 22.6119L118.837 22.3209H118.849Z" fill="#282815"/>
<path d="M117.139 22.5149C117.139 22.0299 116.775 22.0542 116.351 22.0542C115.902 22.0542 115.551 22.042 115.563 22.5392L117.139 22.5149Z" fill="#CC7D37"/>
<path d="M112.301 10.7901C112.762 10.3778 113.562 9.8807 113.974 9.71095C114.387 9.5412 116.339 9.18957 116.787 9.38357C117.236 9.57757 118.073 9.48057 118.073 9.48057L118.242 9.71095C118.242 9.71095 118.485 9.79582 118.63 9.89282C118.958 10.1111 119.334 10.3899 119.334 10.5112C119.334 10.5476 119.37 10.5839 119.406 10.5718C119.54 10.5233 119.77 10.4506 119.891 10.4627C120.061 10.4748 120.34 10.6082 120.328 10.6688C120.316 10.7294 120.304 10.8628 120.304 10.8628C120.304 10.8628 120.461 10.8628 120.68 10.9477C121.334 11.2023 121.54 12.0268 121.577 12.4269C121.613 12.8271 121.65 13.6394 121.662 14.5003C121.662 14.7307 121.565 16.1857 121.565 16.1857C121.565 16.1857 121.443 17.1072 121.359 17.3982C121.31 17.5922 121.201 18.2348 121.201 18.2348C121.201 18.2348 120.946 19.6049 120.861 19.3261C120.692 18.8047 120.704 17.7256 120.704 17.7256L120.595 17.0466V16.3069L120.486 15.3612C120.486 15.3612 120.473 15.1551 120.316 14.6822C120.158 14.2093 119.431 13.3363 118.885 13.3606C118.339 13.3848 118.194 13.4212 117.891 13.3727C117.588 13.3242 117.103 13.1302 116.46 13.2878C115.817 13.4454 115.769 13.5788 115.126 13.4697C113.623 13.2272 114.168 13.1059 113.756 13.1181C112.907 13.1423 112.932 13.4697 112.653 13.9183C112.313 14.4518 112.071 15.4461 111.962 16.0766C111.828 16.8647 111.901 17.5558 111.877 17.8953C111.853 18.2348 111.877 19.7626 111.877 19.7626C111.877 19.7626 111.634 19.4231 111.622 19.3746C111.501 18.9987 111.537 18.4894 111.537 18.4894C111.537 18.4894 111.246 17.8104 111.137 17.4346C111.004 16.9859 110.919 16.5373 110.87 15.8826C110.81 15.0944 110.98 13.4333 111.052 13.0332C111.125 12.6331 111.574 11.5054 112.35 10.8022L112.301 10.7901Z" fill="#282815"/>
<path d="M151.596 8.98315H130.292C128.608 8.98315 127.243 10.3481 127.243 12.0319V24.2359C127.243 25.9197 128.608 27.2846 130.292 27.2846H151.596C153.28 27.2846 154.645 25.9197 154.645 24.2359V12.0319C154.645 10.3481 153.28 8.98315 151.596 8.98315Z" fill="#A37FF1"/>
<path d="M128.398 20.8824L128.611 17.3625L123.973 22.9241C123.557 23.4322 123.89 24.199 124.546 24.2267L128.186 24.4022L128.398 20.8824Z" fill="#A37FF1"/>
<path d="M139.955 17.2146H130.551C130.347 17.2146 130.172 17.0484 130.172 16.8359C130.172 16.6234 130.338 16.4571 130.551 16.4571H139.955C140.159 16.4571 140.334 16.6234 140.334 16.8359C140.334 17.0484 140.168 17.2146 139.955 17.2146Z" fill="white"/>
<path d="M150.025 17.2146H141.628C141.424 17.2146 141.249 17.0484 141.249 16.8359C141.249 16.6234 141.415 16.4571 141.628 16.4571H150.025C150.229 16.4571 150.404 16.6234 150.404 16.8359C150.404 17.0484 150.238 17.2146 150.025 17.2146Z" fill="white"/>
<path d="M142.302 14.6279H130.541C130.338 14.6279 130.163 14.4616 130.163 14.2491C130.163 14.0367 130.329 13.8704 130.541 13.8704H142.302C142.505 13.8704 142.681 14.0367 142.681 14.2491C142.681 14.4616 142.515 14.6279 142.302 14.6279Z" fill="white"/>
<path d="M146.857 14.6279H143.826C143.623 14.6279 143.448 14.4616 143.448 14.2491C143.448 14.0367 143.614 13.8704 143.826 13.8704H146.857C147.06 13.8704 147.235 14.0367 147.235 14.2491C147.235 14.4616 147.069 14.6279 146.857 14.6279Z" fill="white"/>
<path d="M151.337 14.6648H148.307C148.104 14.6648 147.928 14.4986 147.928 14.2861C147.928 14.0736 148.095 13.9073 148.307 13.9073H151.337C151.541 13.9073 151.716 14.0736 151.716 14.2861C151.716 14.4986 151.55 14.6648 151.337 14.6648Z" fill="white"/>
<path d="M146.358 19.8199H139.549C139.346 19.8199 139.17 19.6536 139.17 19.4412C139.17 19.2287 139.337 19.0624 139.549 19.0624H146.358C146.561 19.0624 146.737 19.2287 146.737 19.4412C146.737 19.6536 146.57 19.8199 146.358 19.8199Z" fill="white"/>
<path d="M133.581 19.8199H130.551C130.347 19.8199 130.172 19.6536 130.172 19.4412C130.172 19.2287 130.338 19.0624 130.551 19.0624H133.581C133.784 19.0624 133.96 19.2287 133.96 19.4412C133.96 19.6536 133.793 19.8199 133.581 19.8199Z" fill="white"/>
<path d="M138.062 19.8199H135.031C134.828 19.8199 134.653 19.6536 134.653 19.4412C134.653 19.2287 134.819 19.0624 135.031 19.0624H138.062C138.265 19.0624 138.44 19.2287 138.44 19.4412C138.44 19.6536 138.274 19.8199 138.062 19.8199Z" fill="white"/>
<path d="M150.164 22.3697H143.355C143.152 22.3697 142.976 22.2034 142.976 21.991C142.976 21.7785 143.143 21.6122 143.355 21.6122H150.164C150.367 21.6122 150.543 21.7785 150.543 21.991C150.543 22.1942 150.376 22.3697 150.164 22.3697Z" fill="white"/>
<path d="M137.35 22.3697H130.541C130.338 22.3697 130.163 22.2034 130.163 21.991C130.163 21.7785 130.329 21.6122 130.541 21.6122H137.35C137.553 21.6122 137.729 21.7785 137.729 21.991C137.729 22.1942 137.563 22.3697 137.35 22.3697Z" fill="white"/>
<path d="M141.341 22.3697H139.143C138.939 22.3697 138.764 22.2034 138.764 21.991C138.764 21.7785 138.93 21.6122 139.143 21.6122H141.341C141.545 21.6122 141.72 21.7785 141.72 21.991C141.72 22.1942 141.554 22.3697 141.341 22.3697Z" fill="white"/>
<path d="M66.7917 31.3146L86.1468 31.3146C88.0723 31.3146 89.6332 29.7536 89.6332 27.8281V18.1189C89.6332 16.1934 88.0723 14.6325 86.1468 14.6325L66.7917 14.6325C64.8662 14.6325 63.3053 16.1934 63.3053 18.1189V27.8281C63.3053 29.7536 64.8662 31.3146 66.7917 31.3146Z" fill="#86B5F8"/>
<path d="M63.4567 21.9016V26.0255L58.4583 19.2181C58.004 18.6008 58.4498 17.7264 59.2128 17.7349L63.4567 17.7864V21.9102V21.9016Z" fill="#86B5F8"/>
<path d="M76.6806 23.0316H85.7242C85.9249 23.0316 86.0834 22.8732 86.0834 22.6724C86.0834 22.4717 85.9249 22.3132 85.7242 22.3132H76.6806C76.4798 22.3132 76.3214 22.4717 76.3214 22.6724C76.3214 22.8732 76.4798 23.0316 76.6806 23.0316Z" fill="white"/>
<path d="M67.003 23.0316H75.0747C75.2754 23.0316 75.4339 22.8732 75.4339 22.6724C75.4339 22.4717 75.2754 22.3132 75.0747 22.3132H67.003C66.8023 22.3132 66.6438 22.4717 66.6438 22.6724C66.6438 22.8732 66.8023 23.0316 67.003 23.0316Z" fill="white"/>
<path d="M74.4197 20.5489H85.7242C85.9249 20.5489 86.0834 20.3904 86.0834 20.1897C86.0834 19.9889 85.9249 19.8304 85.7242 19.8304H74.4197C74.2189 19.8304 74.0605 19.9889 74.0605 20.1897C74.0605 20.3904 74.2189 20.5489 74.4197 20.5489Z" fill="white"/>
<path d="M70.0563 20.5489H72.9723C73.173 20.5489 73.3315 20.3904 73.3315 20.1897C73.3315 19.9889 73.173 19.8304 72.9723 19.8304H70.0563C69.8556 19.8304 69.6971 19.9889 69.6971 20.1897C69.6971 20.3904 69.8556 20.5489 70.0563 20.5489Z" fill="white"/>
<path d="M70.5212 25.5356H77.0609C77.2616 25.5356 77.4201 25.3771 77.4201 25.1763C77.4201 24.9756 77.2616 24.8171 77.0609 24.8171H70.5212C70.3204 24.8171 70.162 24.9756 70.162 25.1763C70.162 25.3771 70.3204 25.5356 70.5212 25.5356Z" fill="white"/>
<path d="M82.8082 25.5356H85.7241C85.9249 25.5356 86.0834 25.3771 86.0834 25.1763C86.0834 24.9756 85.9249 24.8171 85.7241 24.8171H82.8082C82.6075 24.8171 82.449 24.9756 82.449 25.1763C82.449 25.3771 82.6075 25.5356 82.8082 25.5356Z" fill="white"/>
<path d="M78.4977 25.5356H81.4137C81.6144 25.5356 81.7729 25.3771 81.7729 25.1763C81.7729 24.9756 81.6144 24.8171 81.4137 24.8171H78.4977C78.297 24.8171 78.1385 24.9756 78.1385 25.1763C78.1385 25.3771 78.297 25.5356 78.4977 25.5356Z" fill="white"/>
<path d="M171.013 39.7507H154.704C153.081 39.7507 151.766 41.0661 151.766 42.6886V51.9207C151.766 53.5433 153.081 54.8586 154.704 54.8586H171.013C172.636 54.8586 173.951 53.5433 173.951 51.9207V42.6886C173.951 41.0661 172.636 39.7507 171.013 39.7507Z" fill="#4ECFA5"/>
<path d="M173.059 50.6225V47.3547L177.045 52.7546C177.404 53.2455 177.045 53.9342 176.444 53.9269L173.059 53.8902V50.6225Z" fill="#4ECFA5"/>
<path d="M162.547 46.5257H154.926C154.757 46.5257 154.624 46.3922 154.624 46.223C154.624 46.0539 154.757 45.9203 154.926 45.9203H162.547C162.716 45.9203 162.85 46.0539 162.85 46.223C162.85 46.3922 162.716 46.5257 162.547 46.5257Z" fill="#F6F9FF"/>
<path d="M164.452 44.4336H154.926C154.757 44.4336 154.624 44.3 154.624 44.1309C154.624 43.9617 154.757 43.8282 154.926 43.8282H164.452C164.621 43.8282 164.755 43.9617 164.755 44.1309C164.755 44.3 164.621 44.4336 164.452 44.4336Z" fill="#F6F9FF"/>
<path d="M168.138 44.4336H165.681C165.512 44.4336 165.378 44.3 165.378 44.1309C165.378 43.9617 165.512 43.8282 165.681 43.8282H168.138C168.307 43.8282 168.441 43.9617 168.441 44.1309C168.441 44.3 168.307 44.4336 168.138 44.4336Z" fill="#F6F9FF"/>
<path d="M171.77 44.4603H169.313C169.144 44.4603 169.01 44.3268 169.01 44.1576C169.01 43.9885 169.144 43.8549 169.313 43.8549H171.77C171.939 43.8549 172.073 43.9885 172.073 44.1576C172.073 44.3268 171.939 44.4603 171.77 44.4603Z" fill="#F6F9FF"/>
<path d="M167.737 48.6446H162.226C162.057 48.6446 161.924 48.511 161.924 48.3419C161.924 48.1727 162.057 48.0392 162.226 48.0392H167.737C167.906 48.0392 168.04 48.1727 168.04 48.3419C168.04 48.511 167.906 48.6446 167.737 48.6446Z" fill="#F6F9FF"/>
<path d="M157.383 48.6446H154.926C154.757 48.6446 154.624 48.511 154.624 48.3419C154.624 48.1727 154.757 48.0392 154.926 48.0392H157.383C157.553 48.0392 157.686 48.1727 157.686 48.3419C157.686 48.511 157.553 48.6446 157.383 48.6446Z" fill="#F6F9FF"/>
<path d="M161.016 48.6446H158.559C158.389 48.6446 158.256 48.511 158.256 48.3419C158.256 48.1727 158.389 48.0392 158.559 48.0392H161.016C161.185 48.0392 161.318 48.1727 161.318 48.3419C161.318 48.511 161.185 48.6446 161.016 48.6446Z" fill="#F6F9FF"/>
<path d="M160.446 50.7011H154.935C154.766 50.7011 154.632 50.5676 154.632 50.3985C154.632 50.2293 154.766 50.0958 154.935 50.0958H160.446C160.615 50.0958 160.749 50.2293 160.749 50.3985C160.749 50.5676 160.615 50.7011 160.446 50.7011Z" fill="#F6F9FF"/>
<path d="M163.678 50.7011H161.897C161.728 50.7011 161.594 50.5676 161.594 50.3985C161.594 50.2293 161.728 50.0958 161.897 50.0958H163.678C163.847 50.0958 163.98 50.2293 163.98 50.3985C163.98 50.5676 163.847 50.7011 163.678 50.7011Z" fill="#F6F9FF"/>
<path d="M166.811 50.6744H165.031C164.862 50.6744 164.728 50.5409 164.728 50.3717C164.728 50.2026 164.862 50.069 165.031 50.069H166.811C166.981 50.069 167.114 50.2026 167.114 50.3717C167.114 50.5409 166.981 50.6744 166.811 50.6744Z" fill="#F6F9FF"/>
<path opacity="0.14" d="M39.682 120.779C53.0672 120.779 63.9181 120.098 63.9181 119.259C63.9181 118.419 53.0672 117.738 39.682 117.738C26.2968 117.738 15.446 118.419 15.446 119.259C15.446 120.098 26.2968 120.779 39.682 120.779Z" fill="#4B91F5"/>
<path d="M26.1629 110.464L25.1201 109.999C23.9893 109.497 22.3812 110.125 22.8837 108.994L25.2708 104.144C25.7734 103.014 27.3439 100.978 28.4746 101.481L30.5351 102.486C31.6658 102.988 30.9245 105.313 30.422 106.444L28.3113 109.421C27.8087 110.552 27.2936 110.966 26.1629 110.464Z" fill="#F4B9AE"/>
<path d="M21.8158 108.102C21.263 108.416 20.082 109.396 20.1071 109.936C20.17 111.029 22.2053 112.311 22.9089 113.278C24.2657 115.113 25.9995 119.485 29.2536 120.201C32.5076 120.917 32.5201 119.384 32.5201 119.384C32.5201 119.384 29.5048 113.881 29.0777 111.808C29.0023 111.431 29.0023 110.615 29.0148 110.15C29.0651 109.22 27.8338 109.17 27.2057 109.245C26.2885 109.346 25.0447 108.969 24.4039 108.63C23.9265 108.378 23.3486 107.461 23.3486 107.461C23.3486 107.461 22.1802 107.888 21.8158 108.089V108.102Z" fill="#E7684F"/>
<path d="M27.2936 118.618C27.08 118.454 26.879 118.279 26.6905 118.09C25.8613 117.261 25.296 116.206 24.7557 115.188C24.027 113.818 23.4365 113.077 22.846 112.499C22.5696 112.223 21.6525 111.444 21.6525 111.444C20.974 110.791 20.6474 110.426 20.3333 109.572C20.2705 109.383 20.3961 109.22 20.5594 109.094C20.7479 108.944 20.8484 108.78 20.9112 108.969C21.1625 109.672 21.8661 110.615 22.4817 111.218C23.826 112.311 24.6552 113.454 25.3965 114.836C25.9116 115.803 26.4518 116.809 27.2057 117.562C28.4243 118.794 30.3089 119.346 31.9924 118.97C32.1935 118.932 32.3945 119.058 32.4322 119.259C32.4699 119.46 32.3442 119.661 32.1432 119.698C30.4722 120.063 28.6379 119.635 27.281 118.605L27.2936 118.618Z" fill="#E6E9EC"/>
<path opacity="0.86" d="M28.0977 112.901C28.0977 112.901 28.0726 112.876 28.0726 112.864C28.06 112.826 28.0726 112.788 28.0851 112.763L28.55 112.198L27.9218 111.632C27.9218 111.632 27.8841 111.582 27.8841 111.557C27.8841 111.532 27.8841 111.507 27.9218 111.482L28.3615 111.08L27.8841 110.564C27.8841 110.564 27.8464 110.489 27.8716 110.451C27.8967 110.414 27.9344 110.389 27.9721 110.401L28.9897 110.552C28.9897 110.552 29.0525 110.577 29.0651 110.615C29.0651 110.652 29.0651 110.69 29.04 110.715L28.6379 111.08L29.1531 111.632C29.1531 111.632 29.1907 111.72 29.1531 111.758L28.8138 112.16L29.4043 112.7C29.4043 112.7 29.442 112.776 29.4295 112.813C29.4169 112.851 29.3792 112.876 29.3415 112.876L28.1605 112.914C28.1605 112.914 28.1228 112.914 28.0977 112.889V112.901ZM28.6882 112.323L28.3741 112.713L29.0902 112.688L28.6882 112.323ZM28.1228 111.544L28.6631 112.034L28.9395 111.708L28.4872 111.218L28.1228 111.544ZM28.2108 110.627L28.4997 110.929L28.751 110.703L28.2233 110.627H28.2108Z" fill="#E6E9EC"/>
<path d="M45.0964 77.7605C42.4329 76.479 38.5633 76.9062 36.5782 79.7959C35.9123 80.7633 36.038 82.4217 35.1836 83.6655L23.7506 103.516C23.7506 103.516 24.3537 106.343 25.0321 106.921C26.0372 107.775 30.5099 109.258 30.5099 109.258L45.3603 88.4523C45.8126 88.0502 47.1066 86.6557 47.4584 86.1406C49.456 83.2509 47.7851 79.042 45.109 77.7605H45.0964Z" fill="#267AF2"/>
<path d="M36.0254 81.5673L40.9253 59.8572L54.4313 60.2592L48.0112 84.9344L36.0254 81.5673Z" fill="#267AF2"/>
<path d="M65.6925 111.062C65.3954 109.53 63.9148 108.528 62.3855 108.824C60.8562 109.12 59.8574 110.603 60.1545 112.136L60.6565 114.726C60.9536 116.259 62.4342 117.261 63.9635 116.965C65.4928 116.668 66.4917 115.185 66.1946 113.653L65.6925 111.062Z" fill="#F4B9AE"/>
<path d="M60.7132 114.409C60.7132 114.409 60.9142 115.1 62.5349 114.798C64.1556 114.497 65.211 114.007 65.5502 113.404C65.8894 112.801 66.0905 112.411 66.0905 112.411C66.0905 112.411 69.5329 115.188 70.6888 115.477C71.8447 115.766 74.4705 116.08 75.2243 116.633C75.9781 117.185 75.2117 118.429 75.2117 118.429C75.2117 118.429 72.7744 119.573 70.5003 119.334C68.3896 119.108 67.8996 119.422 64.3818 119.635C61.1027 119.836 59.9594 119.459 59.9594 119.459C59.9594 119.459 60.0096 117.399 60.0347 116.947C60.0599 116.268 60.7132 114.396 60.7132 114.396V114.409Z" fill="#E7684F"/>
<path d="M71.6436 118.731C71.5683 118.731 70.6009 118.756 70.538 118.756L64.0049 119.045C63.8541 119.045 61.668 119.045 60.5875 118.982C60.2483 118.969 59.9719 118.944 59.9719 118.894C59.9719 118.844 59.9217 118.429 59.9468 118.253C60.9645 118.341 63.9798 118.417 63.9798 118.417L72.2467 117.939C72.8498 117.914 73.5282 117.902 74.1061 117.663C74.6715 117.437 74.9605 117.06 75.0107 116.582C75.0359 116.381 75.0987 116.582 75.2997 116.582C75.5007 116.608 75.5133 117.223 75.4002 117.399C74.9479 118.14 74.7971 118.14 73.9428 118.417C73.3021 118.63 72.2341 118.693 71.6311 118.718L71.6436 118.731Z" fill="#E6E9EC"/>
<path d="M59.1804 73.0239C56.2028 73.4511 56.3033 76.6297 56.8812 80.6376C57.0697 81.9819 57.2707 83.7911 57.1576 85.5877L59.0673 111.959L67.7363 110.941L67.1709 82.8362C67.2212 82.1704 67.2714 79.8837 67.1709 79.1802C66.593 75.1723 62.1454 72.5968 59.1678 73.0239H59.1804Z" fill="#4B91F5"/>
<path d="M67.485 76.592C65.9397 69.7824 52.8357 53.0726 52.8357 53.0726C52.8357 53.0726 52.3583 53.0475 51.818 53.236C49.7702 53.9647 46.1769 53.8265 44.0285 53.6129C41.1263 53.3239 38.3246 51.2383 38.3246 51.2383L37.1687 54.0903C37.1687 54.0903 36.5657 57.0428 36.7667 58.6384C36.9677 60.234 37.3697 62.395 37.7341 63.3121C38.0859 64.2418 39.7066 65.8123 39.7066 65.8123C39.7066 65.8123 50.7878 72.8103 53.0116 74.5064L58.125 82.5723L67.1835 80.8637C67.1835 80.8637 67.6986 77.5091 67.485 76.6046V76.592Z" fill="#4B91F5"/>
<path d="M55.9892 46.3888C57.0697 45.7355 57.6979 43.6625 57.032 42.5694L49.9083 32.0536C49.255 30.9731 47.3579 29.7041 46.2774 30.3575C45.1969 31.0108 44.217 32.9958 44.9457 35.3076C46.1015 38.9888 51.3783 46.4642 51.3783 46.4642C52.0316 47.5447 54.8962 47.017 55.9766 46.3637L55.9892 46.3888Z" fill="#DF8C58"/>
<path d="M68.0127 52.9471C68.7037 51.8917 68.0379 50.7735 66.9825 50.0825L56.9064 42.494C55.851 41.803 53.0619 41.7025 52.3709 42.7579C51.6799 43.8132 50.7753 46.2506 51.8306 46.9416L65.4497 53.2486C66.5051 53.9396 67.3217 54.0024 68.0127 52.9345V52.9471Z" fill="#DF8C58"/>
<path d="M72.1588 51.6656L72.2844 55.4347L70.0229 56.2011L65.1105 53.1732L66.5679 49.7056L72.1588 51.6656Z" fill="#DF8C58"/>
<path d="M54.469 38.7626L53.577 33.6115C53.577 33.6115 52.9488 29.9931 52.4713 28.9503C51.6673 27.2039 50.5617 26.1109 48.7273 26.2114C44.8075 26.3119 43.4506 28.4729 43.2621 31.7897C43.4506 32.9456 44.8954 41.1748 44.8954 41.1748C47.3202 40.421 51.9814 39.1521 54.469 38.7752V38.7626Z" fill="#00A573"/>
<path d="M46.3276 16.6002C46.3276 16.6002 47.0312 20.5954 46.1894 21.7639C45.3477 22.9323 44.5185 24.2012 44.5185 24.2012L48.3253 26.2742L54.6323 26.1863L52.8105 23.1961L53.7905 19.138L46.3151 16.6002H46.3276Z" fill="#C37F54"/>
<path d="M47.8856 16.5624C49.1796 18.648 49.4812 19.628 51.0768 19.9295C52.4839 20.1934 54.0167 20.4572 55.3861 20.1557C55.8887 20.0426 56.2279 19.5777 56.3912 18.8616C56.7179 17.5047 56.5922 15.3312 56.0394 13.0697C55.9389 12.6677 55.9012 12.341 56.1148 11.7505C56.253 11.3862 56.4792 11.0721 56.4666 10.7706C56.341 6.15966 49.0289 5.12944 46.3528 6.78785C43.6767 8.44626 45.4356 12.6551 47.8604 16.575L47.8856 16.5624Z" fill="#DF8C58"/>
<path d="M57.3461 15.9217C57.5848 15.8086 57.6602 15.4945 57.4968 15.2935L56.0017 13.3712L56.2656 16.4368L57.3461 15.9217Z" fill="#DF8C58"/>
<path d="M51.215 5.0666C52.3206 5.34301 55.0092 6.42349 55.8133 7.24013C56.7304 8.18241 56.7053 10.0795 56.7053 10.0795C56.7053 10.0795 54.7579 10.3811 54.2428 10.758C53.5141 11.2982 53.2 14.2004 53.2 14.2004C53.2 14.2004 52.7352 14.3512 52.2703 14.0748C52.107 13.9743 52.0693 13.5974 51.8683 13.2959C51.7301 13.0948 51.5039 12.9692 51.215 12.8813C50.7501 12.7431 50.235 12.8436 50.0842 13.5723C50.0465 13.7482 50.0214 13.9617 50.034 14.2256C50.0717 15.5448 50.5742 16.1227 50.5742 16.1227L49.2173 17.756L48.5389 18.5852L46.1141 19.54C46.1141 19.54 42.0811 13.7607 41.9932 12.1526C41.8173 8.72265 42.5208 8.01908 43.4882 6.95116C44.0913 6.28529 44.9833 5.46864 46.893 4.87815C47.6343 4.652 50.1596 4.80276 51.2024 5.07917L51.215 5.0666Z" fill="#2D2010"/>
<path d="M57.5471 41.3004C57.3084 45.5219 57.5094 46.6903 56.2028 51.3012C55.0092 55.4975 55.5118 54.3165 52.4714 56.1005C50.2978 57.3695 47.7976 58.0354 45.9382 57.7841C43.8652 57.4951 37.4074 56.3392 36.3772 54.2788C37.1813 49.4292 40.5484 44.7178 40.9378 40.4461C41.5158 34.0512 40.5107 24.1509 46.2523 21.7136C48.2625 23.0328 47.5715 22.9448 49.6445 23.8243C51.1019 24.4399 52.2578 24.0002 53.69 23.9373C54.2931 24.7917 56.4666 28.6487 56.7807 30.1313C57.5722 33.913 57.8235 36.5011 57.5471 41.313V41.3004Z" fill="#FFE08B"/>
<path d="M40.9001 48.6C39.7066 48.198 38.6387 46.3008 39.0533 45.1073L43.727 33.3099C44.129 32.1164 45.6995 30.4579 46.9056 30.8726C48.0992 31.2746 49.4937 33.0084 49.2802 35.4206C48.9409 39.2651 44.7823 47.5698 44.7823 47.5698C44.3803 48.7633 42.1063 49.0272 40.9001 48.6126V48.6Z" fill="#DF8C58"/>
<path d="M41.8675 61.8045C40.5986 61.8548 39.9955 60.7115 39.9453 59.4425L38.6387 46.8913C38.5884 45.6224 39.9453 43.185 41.2017 43.1473C42.4706 43.0971 45.021 43.5871 45.0713 44.856L43.4506 59.7817C43.5008 61.0507 43.1365 61.7668 41.8675 61.8171V61.8045Z" fill="#DF8C58"/>
<path d="M37.1813 65.0711L39.7945 67.8728L42.0309 66.7169L43.5385 60.8497L39.983 59.4551L37.1813 65.0711Z" fill="#DF8C58"/>
<path d="M49.3179 40.5089C49.8707 37.3052 54.6449 28.8749 49.9963 26.8396C43.8652 24.1509 42.2696 34.403 40.8122 38.1344C43.3249 38.5364 46.9182 39.7551 49.3053 40.5215L49.3179 40.5089Z" fill="#00A573"/>
</g>
<defs>
<clipPath id="clip0_5226_7538">
<rect width="218.557" height="164" fill="white"/>
</clipPath>
</defs>
</svg>
