<svg id="Layer_1" data-name="Layer 1" xmlns="http://www.w3.org/2000/svg" viewBox="0 0 19.67 19.67"><defs><style>.cls-1{fill:#0e6aed;}</style></defs><path class="cls-1" d="M14.64,9.83l5.21-6.58-2.36-3L17.28,0h-4L10.13,4.08,6.94,0H2.84L2.33.64.25,3.24,5.44,9.82.25,16.35l2.3,3,.2.27H6.86l3.2-4.08,3.25,4.08h4.34l2.27-3.27Zm-.76-8.47H15.6L11.91,6.3,11,5.13Zm-7.75,17H4.46l3.75-5,.91,1.17Zm7.79,0L8.24,11.16,3.1,17.85,2,16.38l5.2-6.56L2,3.23,3.12,1.78,16,18.34Zm3.38-.6L4.52,1.33h1.7l5.69,7.16L17,1.82l1.13,1.37L12.9,9.83l5.31,6.68Z" transform="translate(-0.25)"/></svg>